<?xml version="1.0" encoding="iso-8859-1"?>
<!-- Generator: Adobe Illustrator 16.0.0, SVG Export Plug-In . SVG Version: 6.00 Build 0)  -->
<!DOCTYPE svg PUBLIC "-//W3C//DTD SVG 1.1//EN" "http://www.w3.org/Graphics/SVG/1.1/DTD/svg11.dtd">
<svg xmlns="http://www.w3.org/2000/svg" xmlns:xlink="http://www.w3.org/1999/xlink" version="1.1" id="Capa_1" x="0px" y="0px" width="512px" height="512px" viewBox="0 0 111.707 111.707" style="enable-background:new 0 0 111.707 111.707;" xml:space="preserve">
<g>
	<path d="M95.54,111.272c-0.896-5.469-5.694-6.273-9.185-6.858c-1.355-0.232-2.536-0.417-3.251-0.828   c-1.63-0.91-3.104-1.991-4.542-3.039c-3.34-2.433-6.484-4.726-11.05-4.726c-0.473,0-0.958,0.021-1.444,0.064   c-1.358,0.145-2.707,0.415-4.014,0.671c-1.111,0.229-2.268,0.462-3.421,0.605c-0.325,0.045-0.612,0.09-0.869,0.134   c-0.308,0.055-0.539,0.093-0.729,0.1c-2.933,0.161-0.371-7.673-0.371-7.673c1.833-5.431,3.725-11.036,7.751-15.064   c1.451-1.438,3.117-2.542,4.992-3.743c0.254-0.165,0.514-0.288,0.767-0.38c2.266,0.605,4.634,0.968,6.917,0.746   c3.524-0.418,6.484-1.681,9.485-3.525c0.586-0.366,2.892-1.804,2.766-2.557c-0.182-1.143-1.66-2.594-2.916-3.494   c-6.728-4.558-17.012-0.961-19.599,6.684c2.334-1.957,6.434-3.329,11.245-2.508c-3.36,0.403-7.265,2.05-7.265,2.05   S63.05,71.318,57.433,82.67c0.753-3.436,1.716-6.763,2.666-10.034c1.177-4.045,2.404-8.237,3.198-12.601   c1.506-10.861,9.445-18.851,10.15-19.289c2.128,0.255,4.305,0.288,6.344-0.171c3.45-0.838,6.235-2.446,8.994-4.64   c0.54-0.431,2.655-2.134,2.446-2.873c-0.318-1.107-1.968-2.373-3.326-3.116c-7.224-3.711-16.998,1.097-18.641,8.995   c2.081-2.225,5.989-4.076,10.855-3.84c-4.989,1.222-7.529,3.157-8.658,4.288v-0.003c0,0-4.333,3.922-7.073,10.314   c0.324-6.329,0.123-14.14-2.043-21.745c-1.539-5.393-3.187-8.365-3.187-8.365c-1.131-2.12-3.585-5.46-8.781-8.999   c6.454,2.063,10.633,6.371,12.244,10.271C64.323,9.793,53.949-1.204,42.753,0.106c-2.117,0.313-4.868,1.16-5.825,2.444   c-0.628,0.855,1.289,4.093,1.78,4.916c2.517,4.196,5.366,7.64,9.44,10.402c2.632,1.716,5.741,2.775,8.877,3.475   c0.014,0.04,0.031,0.074,0.043,0.117c0.676,2.662,1.208,4.986,1.643,7.316c1.342,7.339,1.395,15.658,0.154,24.754   c-0.998-5.361-7.517-11.497-9.143-12.98c-0.204-0.198-0.452-0.419-0.739-0.655v-0.003l0,0c-1.377-1.118-3.812-2.582-7.875-3.575   c4.878-0.234,8.781,1.615,10.857,3.842c-1.647-7.902-11.415-12.707-18.644-8.995c-1.348,0.742-2.993,2.007-3.311,3.114   c-0.214,0.736,1.899,2.444,2.435,2.875c2.755,2.194,5.551,3.802,9,4.639c2.281,0.511,4.729,0.421,7.085,0.073   c0.101,0.06,4.387,3.133,8.27,10.609c2.835,5.451,0.659,12.381-1.28,18.986c-0.616,2.094-1.208,4.1-1.629,6.006   c-1.331-3.56-4.163-7.871-7.814-11.854c-0.712-0.883-3.183-3.385-9.209-4.829c4.871-0.256,8.792,1.574,10.874,3.789   c-1.682-7.892-11.477-12.652-18.682-8.906c-1.357,0.751-2.993,2.023-3.308,3.136c-0.207,0.732,1.92,2.431,2.459,2.858   c2.765,2.183,5.562,3.774,9.017,4.596c2.288,0.503,4.745,0.39,7.11,0.037c0.932,0.876,5.183,5.1,7.983,11.659   c1.395,3.293,0.206,6.938-1.09,10.527c-0.38,1.088-0.754,2.111-1.042,3.131l-0.084,0.271c-0.636,2.207-1.295,4.49-1.468,6.811   c-0.014,0.171-0.038,0.571-1.034,0.571c-1.458,0-3.872-0.894-5.467-1.476c-0.683-0.253-1.224-0.462-1.532-0.523   c-3.15-0.78-6.25-0.555-8.61,0.637c-1.545,0.77-2.214,2.084-2.849,3.36c-0.549,1.085-1.073,2.108-2.113,2.669   c-0.749,0.408-1.622,0.432-2.554,0.466c-1.054,0.021-2.147,0.052-3.09,0.678c-2.812,1.889-4.552,3.956-5.156,6.16l-0.137,0.476   h79.51L95.54,111.272z" fill="#FFFFFF"/>
</g>
<g>
</g>
<g>
</g>
<g>
</g>
<g>
</g>
<g>
</g>
<g>
</g>
<g>
</g>
<g>
</g>
<g>
</g>
<g>
</g>
<g>
</g>
<g>
</g>
<g>
</g>
<g>
</g>
<g>
</g>
</svg>
