<?xml version="1.0" encoding="iso-8859-1"?>
<!-- Generator: Adobe Illustrator 16.0.0, SVG Export Plug-In . SVG Version: 6.00 Build 0)  -->
<!DOCTYPE svg PUBLIC "-//W3C//DTD SVG 1.1//EN" "http://www.w3.org/Graphics/SVG/1.1/DTD/svg11.dtd">
<svg xmlns="http://www.w3.org/2000/svg" xmlns:xlink="http://www.w3.org/1999/xlink" version="1.1" id="Capa_1" x="0px" y="0px" width="512px" height="512px" viewBox="0 0 565.543 565.543" style="enable-background:new 0 0 565.543 565.543;" xml:space="preserve">
<g>
	<g>
		<path d="M226.661,298.609c-1.913-0.816-3.678-1.869-6.273-1.092c-1.852,0.557-3.28,1.629-4.856,3.018    c-3.252,2.863-6.49,6.004-9.293,9.314c-1.769,2.086-3.614,4.158-5.019,6.447c-0.652,1.059-1.111,1.809-2.02,2.723    c-0.514,0.518-1.833,1.396-2.102,2.014c0.912-0.74,1.778-1.318,2.849-1.432c0.646,0.188,2.167,0.232,2.916,0.031    c0.949-0.006,2.041-0.41,2.919-0.209c1.004,0.23,2.167,0.16,3.231,0.252c2.687,0.232,5.691,0.109,8.568-0.389    c1.9-0.33,4.633-0.555,6.454-2.252c1.616-1.439,3.381-3.201,4.159-5.127c0.74-1.832,1.612-3.625,1.597-5.424    c-0.006-0.723,0.26-2.02-0.04-2.6c0.355-0.941-11.705,3.881-12.638,4.129C216.018,306.598,228.279,299.613,226.661,298.609z" fill="#FFFFFF"/>
		<path d="M153.138,258.689c0.912-0.741,1.778-1.319,2.849-1.432c0.646,0.187,2.167,0.232,2.916,0.031    c0.949-0.006,2.041-0.41,2.919-0.208c1.004,0.229,2.167,0.159,3.231,0.25c2.687,0.233,5.691,0.11,8.565-0.388    c0.787-0.135,1.72-0.275,2.665-0.487c-1.563,1.555-3.072,3.164-4.471,4.816c-1.769,2.087-3.614,4.159-5.018,6.448    c-0.652,1.059-1.111,1.808-2.02,2.723c-0.514,0.517-1.833,1.396-2.103,2.014c0.912-0.741,1.778-1.319,2.849-1.432    c0.646,0.187,2.167,0.232,2.916,0.03c0.949-0.006,2.041-0.41,2.919-0.208c1.003,0.229,2.167,0.159,3.231,0.251    c2.687,0.232,5.691,0.11,8.568-0.389c1.9-0.331,4.633-0.554,6.454-2.252c1.616-1.438,3.381-3.201,4.158-5.125    c0.741-1.833,1.613-3.626,1.598-5.425c-0.006-0.722,0.26-2.02-0.04-2.598c0.355-0.942-11.705,3.88-12.638,4.128    c-1.083-1.42,11.178-8.403,9.56-9.406c-1.913-0.817-3.678-1.87-6.273-1.093c-0.658,0.196-1.252,0.48-1.827,0.799    c0.024-0.058,0.067-0.113,0.092-0.174c0.741-1.833,1.613-3.626,1.598-5.425c-0.006-0.722,0.257-2.02-0.043-2.598    c0.355-0.942-11.705,3.88-12.638,4.128c-1.083-1.42,11.178-8.403,9.559-9.406c-1.912-0.817-3.678-1.87-6.273-1.092    c-1.854,0.557-3.28,1.627-4.856,3.017c-3.253,2.864-6.49,6.003-9.293,9.314c-1.769,2.087-3.614,4.159-5.018,6.447    c-0.652,1.059-1.111,1.809-2.02,2.724C154.726,257.193,153.407,258.071,153.138,258.689z" fill="#FFFFFF"/>
		<path d="M194.038,366.473c-0.006-0.861,0.309-2.408-0.049-3.102c0.422-1.125-13.966,4.631-15.083,4.924    c-1.294-1.695,13.338-10.027,11.408-11.223c-2.283-0.977-4.388-2.232-7.488-1.305c-2.212,0.664-3.917,1.943-5.796,3.6    c-3.88,3.418-7.745,7.162-11.089,11.117c-2.108,2.49-4.312,4.963-5.988,7.691c-0.777,1.264-1.325,2.16-2.411,3.25    c-0.615,0.615-2.188,1.664-2.509,2.402c1.086-0.885,2.121-1.576,3.396-1.707c0.768,0.223,2.583,0.275,3.479,0.039    c1.132-0.01,2.433-0.49,3.482-0.248c1.197,0.275,2.586,0.189,3.856,0.301c3.204,0.277,6.793,0.135,10.22-0.463    c2.268-0.391,5.529-0.66,7.699-2.686c1.928-1.717,4.036-3.82,4.96-6.117C193.013,370.76,194.056,368.619,194.038,366.473z" fill="#FFFFFF"/>
		<path d="M217.894,382.758c1.129-2.322,2.274-5.07,2.255-7.547c-0.018-2.359,0.128-4.734-0.707-6.713    c-0.333-0.793-0.633-2.344-1.227-2.846c-0.037-1.203-11.145,9.605-12.065,10.303c-1.842-1.074,8.507-14.355,6.267-14.725    c-2.482-0.031-4.908-0.389-7.417,1.648c-1.79,1.457-2.879,3.289-3.987,5.539c-2.283,4.639-4.428,9.574-6.013,14.504    c-1.001,3.109-2.093,6.234-2.604,9.398c-0.235,1.465-0.401,2.502-0.988,3.926c-0.333,0.805-1.386,2.375-1.404,3.176    c0.67-1.232,1.362-2.264,2.491-2.877c0.795-0.088,2.494-0.73,3.231-1.291c1.043-0.439,2.062-1.379,3.124-1.557    c1.212-0.203,2.463-0.809,3.678-1.193c3.069-0.967,6.331-2.467,9.275-4.324C213.745,386.949,216.661,385.459,217.894,382.758z" fill="#FFFFFF"/>
		<path d="M246.795,355.49c-2.481-0.031-4.908-0.389-7.417,1.648c-1.79,1.457-2.879,3.289-3.987,5.539    c-2.283,4.639-4.428,9.574-6.013,14.504c-1,3.109-2.096,6.234-2.604,9.396c-0.236,1.467-0.401,2.504-0.988,3.928    c-0.333,0.805-1.386,2.373-1.405,3.176c0.67-1.234,1.362-2.266,2.488-2.877c0.796-0.088,2.494-0.73,3.231-1.291    c1.043-0.441,2.062-1.381,3.125-1.557c1.211-0.203,2.463-0.809,3.678-1.195c3.069-0.967,6.332-2.465,9.275-4.322    c1.946-1.229,4.859-2.721,6.093-5.42c1.129-2.322,2.273-5.07,2.255-7.545c-0.018-2.359,0.129-4.734-0.707-6.715    c-0.333-0.793-0.634-2.344-1.227-2.846c-0.037-1.203-11.145,9.605-12.066,10.303C238.684,369.141,249.035,355.859,246.795,355.49z    " fill="#FFFFFF"/>
		<path d="M162.896,368.602c1.411-2.164,2.892-4.742,3.182-7.203c0.279-2.344,0.722-4.682,0.141-6.748    c-0.233-0.828-0.333-2.404-0.86-2.977c0.113-1.197-12.262,8.131-13.262,8.709c-1.692-1.297,10.242-13.176,8.066-13.826    c-2.457-0.342-4.819-1.004-7.567,0.707c-1.958,1.221-3.268,2.902-4.648,4.994c-2.849,4.318-5.594,8.945-7.785,13.635    c-1.383,2.961-2.861,5.922-3.761,8.998c-0.416,1.422-0.713,2.432-1.475,3.77c-0.432,0.756-1.674,2.182-1.791,2.975    c0.817-1.139,1.634-2.076,2.831-2.541c0.802,0.014,2.564-0.41,3.369-0.875c1.092-0.305,2.219-1.111,3.296-1.152    c1.227-0.051,2.546-0.494,3.8-0.723c3.167-0.572,6.591-1.652,9.743-3.127C158.257,372.242,161.333,371.127,162.896,368.602z" fill="#FFFFFF"/>
		<path d="M141.421,283.463c-1.472-0.199-2.512-0.336-3.947-0.891c-0.811-0.312-2.409-1.325-3.21-1.321    c1.248,0.636,2.298,1.304,2.938,2.414c0.107,0.792,0.792,2.476,1.374,3.198c0.465,1.033,1.432,2.029,1.637,3.084    c0.233,1.205,0.872,2.441,1.285,3.648c1.043,3.041,2.629,6.264,4.56,9.16c1.102,1.652,2.469,3.957,4.565,5.322    c-0.765,0.193-1.548,0.34-2.298,0.557c-2.512,0.73-5.077,1.408-7.408,2.488c-1.08,0.502-1.842,0.855-3.051,1.104    c-0.683,0.141-2.197,0.145-2.739,0.494c1.117-0.111,2.114-0.113,3.026,0.359c0.416,0.49,1.604,1.328,2.307,1.568    c0.762,0.494,1.842,0.748,2.436,1.377c0.68,0.713,1.644,1.271,2.442,1.906c2.02,1.604,4.48,3.096,7.032,4.217    c1.689,0.74,3.987,2.006,6.334,1.611c2.047-0.293,4.388-0.764,6.022-1.891c1.558-1.07,3.201-2.037,4.14-3.482    c0.376-0.578,1.273-1.471,1.337-2.092c0.78-0.564-11.38-3.092-12.255-3.389c-0.113-1.707,13.351-0.795,12.592-2.447    c-0.716-1.09-1.371-2.201-2.408-3.066c-2.261-2.846-9.431-9.885-10.006-10.604c1.028-1.869,14.568,8.141,14.88,5.891    c-0.03-2.48,0.263-4.918-1.836-7.375c-1.502-1.752-3.363-2.793-5.636-3.842c-4.697-2.168-9.685-4.184-14.654-5.644    C147.75,284.908,144.598,283.892,141.421,283.463z" fill="#FFFFFF"/>
		<path d="M197.095,162.223c0.912-0.741,1.778-1.319,2.849-1.432c0.646,0.187,2.167,0.232,2.916,0.03    c0.949-0.006,2.041-0.41,2.919-0.208c1.003,0.229,2.167,0.159,3.231,0.251c2.687,0.232,5.691,0.11,8.568-0.389    c1.9-0.331,4.633-0.554,6.454-2.252c1.616-1.438,3.381-3.201,4.159-5.125c0.74-1.833,1.612-3.626,1.597-5.425    c-0.006-0.722,0.26-2.02-0.04-2.598c0.355-0.942-11.704,3.88-12.638,4.128c-1.083-1.423,11.178-8.403,9.56-9.406    c-1.913-0.817-3.678-1.87-6.273-1.093c-1.852,0.557-3.28,1.628-4.856,3.018c-3.252,2.864-6.49,6.003-9.293,9.314    c-1.769,2.087-3.614,4.159-5.019,6.447c-0.652,1.059-1.111,1.809-2.02,2.724C198.683,160.729,197.364,161.608,197.095,162.223z" fill="#FFFFFF"/>
		<path d="M247.921,70.322c-1.086,1.282-2.221,2.555-3.084,3.963c-0.401,0.652-0.682,1.111-1.242,1.674    c-0.315,0.318-1.126,0.857-1.292,1.236c0.56-0.456,1.093-0.811,1.75-0.881c0.398,0.113,1.331,0.141,1.79,0.019    c0.584-0.003,1.251-0.251,1.793-0.129c0.618,0.141,1.332,0.098,1.986,0.153c1.649,0.144,3.498,0.067,5.263-0.239    c1.166-0.202,2.846-0.34,3.962-1.383c0.992-0.884,2.078-1.967,2.555-3.148c0.453-1.126,0.992-2.228,0.982-3.333    c-0.003-0.444,0.159-1.239-0.024-1.594c0.217-0.579-7.191,2.384-7.767,2.537c-0.667-0.872,6.867-5.162,5.872-5.78    c-1.175-0.502-2.261-1.147-3.855-0.67c-1.138,0.343-2.017,1-2.983,1.854C251.633,66.359,249.645,68.287,247.921,70.322z" fill="#FFFFFF"/>
		<path d="M214.922,255.317c-1.175-0.502-2.261-1.15-3.855-0.67c-1.138,0.343-2.017,1.001-2.983,1.854    c-1.998,1.76-3.987,3.688-5.71,5.722c-1.086,1.282-2.222,2.555-3.084,3.963c-0.401,0.652-0.683,1.111-1.243,1.674    c-0.315,0.318-1.126,0.857-1.291,1.236c0.56-0.456,1.092-0.811,1.75-0.881c0.395,0.113,1.332,0.141,1.791,0.018    c0.584-0.003,1.251-0.25,1.793-0.128c0.618,0.141,1.331,0.098,1.986,0.156c1.649,0.144,3.498,0.067,5.263-0.239    c1.169-0.202,2.846-0.34,3.966-1.383c0.992-0.884,2.078-1.967,2.555-3.148c0.453-1.126,0.991-2.228,0.982-3.333    c-0.003-0.444,0.159-1.239-0.025-1.594c0.217-0.578-7.191,2.384-7.766,2.537C208.383,260.223,215.917,255.933,214.922,255.317z" fill="#FFFFFF"/>
		<path d="M275.456,35.796c0.474-1.111,1.083-2.133,0.633-3.638c-0.321-1.074-0.946-1.903-1.75-2.818    c-1.662-1.885-3.482-3.764-5.404-5.392c-1.212-1.025-2.411-2.096-3.739-2.91c-0.615-0.376-1.05-0.643-1.579-1.172    c-0.3-0.297-0.811-1.062-1.166-1.218c0.428,0.529,0.765,1.031,0.829,1.652c-0.107,0.373-0.135,1.254-0.019,1.692    c0.003,0.551,0.239,1.181,0.12,1.692c-0.135,0.582-0.092,1.258-0.147,1.875c-0.135,1.558-0.064,3.302,0.223,4.97    c0.19,1.102,0.321,2.687,1.307,3.742c0.835,0.937,1.857,1.961,2.975,2.412c1.065,0.428,2.105,0.936,3.148,0.927    c0.417-0.003,1.169,0.149,1.506-0.025c0.547,0.205-2.25-6.787-2.393-7.332C270.826,29.621,274.874,36.735,275.456,35.796z" fill="#FFFFFF"/>
		<path d="M257.729,37.975c-1.212-1.025-2.412-2.096-3.739-2.91c-0.615-0.376-1.05-0.643-1.579-1.172    c-0.3-0.297-0.811-1.062-1.166-1.218c0.429,0.529,0.765,1.031,0.829,1.652c-0.107,0.374-0.134,1.254-0.018,1.692    c0.003,0.551,0.239,1.184,0.119,1.692c-0.134,0.582-0.092,1.258-0.146,1.876c-0.135,1.558-0.064,3.302,0.223,4.969    c0.19,1.102,0.321,2.687,1.307,3.743c0.835,0.936,1.857,1.961,2.971,2.411c1.065,0.428,2.105,0.937,3.149,0.927    c0.419-0.003,1.172,0.15,1.505-0.024c0.548,0.205-2.252-6.787-2.393-7.332c0.823-0.63,4.875,6.484,5.456,5.545    c0.083-0.196,0.171-0.389,0.257-0.584c0.04,0.817,0.122,1.643,0.263,2.454c0.189,1.102,0.321,2.687,1.307,3.742    c0.835,0.937,1.857,1.961,2.974,2.412c1.065,0.428,2.105,0.936,3.149,0.927c0.419-0.003,1.172,0.15,1.505-0.025    c0.548,0.205-2.252-6.787-2.393-7.332c0.823-0.63,4.875,6.484,5.456,5.545c0.474-1.111,1.083-2.133,0.633-3.639    c-0.321-1.074-0.945-1.903-1.75-2.818c-1.662-1.885-3.482-3.764-5.404-5.392c-1.211-1.025-2.411-2.096-3.739-2.91    c-0.615-0.376-1.049-0.643-1.579-1.172c-0.3-0.297-0.811-1.062-1.166-1.218c0.428,0.529,0.765,1.031,0.829,1.652    c-0.107,0.374-0.135,1.255-0.019,1.692c0.003,0.551,0.239,1.184,0.123,1.692c-0.055,0.236-0.07,0.493-0.083,0.75    c-0.352-0.792-0.829-1.5-1.475-2.234C261.471,41.479,259.65,39.6,257.729,37.975z" fill="#FFFFFF"/>
		<path d="M242.891,105.411c0.474-1.111,1.083-2.133,0.633-3.638c-0.321-1.074-0.946-1.904-1.75-2.818    c-1.662-1.885-3.482-3.764-5.404-5.392c-1.212-1.025-2.412-2.096-3.739-2.91c-0.615-0.376-1.05-0.643-1.579-1.172    c-0.3-0.296-0.811-1.062-1.166-1.218c0.429,0.529,0.765,1.031,0.83,1.652c-0.107,0.374-0.135,1.255-0.019,1.692    c0.003,0.551,0.239,1.181,0.12,1.692c-0.135,0.582-0.092,1.258-0.147,1.876c-0.135,1.558-0.064,3.302,0.223,4.97    c0.19,1.102,0.321,2.687,1.307,3.742c0.835,0.937,1.857,1.961,2.975,2.411c1.064,0.429,2.102,0.937,3.146,0.927    c0.419-0.003,1.169,0.15,1.505-0.024c0.548,0.205-2.249-6.787-2.393-7.332C238.258,99.236,242.307,106.351,242.891,105.411z" fill="#FFFFFF"/>
		<path d="M161.342,204.815c-1.184-0.113-2.022-0.192-3.188-0.593c-0.661-0.227-1.971-0.989-2.613-0.961    c1.019,0.471,1.882,0.973,2.427,1.845c0.11,0.633,0.71,1.958,1.196,2.518c0.404,0.814,1.209,1.579,1.405,2.42    c0.223,0.958,0.771,1.928,1.141,2.883c0.927,2.405,2.295,4.938,3.929,7.197c1.08,1.493,2.423,3.748,4.645,4.599    c1.916,0.783,4.171,1.563,6.15,1.419c1.885-0.134,3.794-0.138,5.334-0.906c0.615-0.309,1.842-0.624,2.212-1.126    c0.958-0.092-8.247-8.427-8.853-9.128c0.765-1.53,11.913,6.077,12.096,4.266c-0.101-1.986,0.064-3.944-1.695-5.851    c-1.255-1.359-2.775-2.136-4.63-2.907c-3.825-1.591-7.883-3.057-11.907-4.073C166.455,205.779,163.9,205.06,161.342,204.815z" fill="#FFFFFF"/>
		<path d="M217.224,201.859c-0.982-1.729-1.72-3.552-4.143-4.461c-1.732-0.648-3.439-0.658-5.444-0.514    c-4.134,0.3-8.415,0.814-12.466,1.713c-2.555,0.566-5.159,1.074-7.552,2.004c-1.108,0.431-1.891,0.734-3.115,0.906    c-0.691,0.095-2.203,0.003-2.766,0.315c1.123-0.037,2.118,0.024,2.996,0.557c0.383,0.514,1.515,1.429,2.2,1.713    c0.725,0.545,1.79,0.869,2.341,1.53c0.63,0.756,1.558,1.377,2.316,2.062c1.91,1.732,4.269,3.378,6.745,4.663    c1.637,0.848,3.849,2.258,6.215,2.02c2.062-0.159,4.428-0.48,6.132-1.497c1.625-0.97,3.326-1.827,4.357-3.207    c0.413-0.554,1.365-1.386,1.472-2.001c0.817-0.514-11.157-3.819-12.011-4.174C204.5,201.776,217.875,203.558,217.224,201.859z" fill="#FFFFFF"/>
		<path d="M225.183,109.833c-4.134,0.3-8.415,0.814-12.466,1.714c-2.555,0.566-5.159,1.074-7.552,2.004    c-1.107,0.431-1.894,0.734-3.115,0.906c-0.692,0.095-2.204,0.003-2.767,0.315c1.123-0.037,2.118,0.024,2.996,0.557    c0.382,0.514,1.515,1.429,2.2,1.713c0.729,0.545,1.791,0.869,2.341,1.53c0.63,0.755,1.557,1.377,2.313,2.062    c1.91,1.732,4.269,3.378,6.748,4.664c1.637,0.848,3.85,2.258,6.215,2.02c2.062-0.159,4.428-0.48,6.132-1.496    c1.625-0.97,3.326-1.827,4.357-3.207c0.413-0.551,1.365-1.386,1.472-2.001c0.817-0.514-11.157-3.819-12.01-4.174    c-0.003-1.71,13.372,0.07,12.723-1.628c-0.982-1.729-1.716-3.553-4.143-4.461C228.895,109.698,227.187,109.689,225.183,109.833z" fill="#FFFFFF"/>
		<path d="M239.421,273.846c-1.092-1.662-1.943-3.434-4.425-4.186c-1.772-0.536-3.476-0.435-5.465-0.162    c-4.106,0.566-8.344,1.358-12.329,2.518c-2.512,0.731-5.077,1.408-7.408,2.488c-1.077,0.502-1.842,0.857-3.051,1.105    c-0.683,0.141-2.197,0.144-2.739,0.493c1.117-0.11,2.114-0.113,3.026,0.361c0.416,0.49,1.604,1.328,2.307,1.567    c0.762,0.496,1.842,0.75,2.436,1.377c0.679,0.713,1.643,1.273,2.445,1.906c2.02,1.604,4.48,3.096,7.032,4.217    c1.689,0.74,3.987,2.007,6.334,1.611c2.047-0.293,4.388-0.764,6.022-1.891c1.558-1.07,3.201-2.037,4.14-3.482    c0.376-0.579,1.273-1.472,1.337-2.093c0.78-0.563-11.38-3.09-12.255-3.387C226.716,274.589,240.18,275.501,239.421,273.846z" fill="#FFFFFF"/>
		<path d="M177.171,288.295c-1.077,0.502-1.842,0.857-3.051,1.105c-0.683,0.141-2.2,0.143-2.739,0.492    c1.117-0.111,2.114-0.113,3.026,0.361c0.416,0.488,1.604,1.328,2.307,1.566c0.762,0.496,1.842,0.75,2.436,1.377    c0.68,0.713,1.644,1.273,2.442,1.906c2.02,1.604,4.48,3.096,7.035,4.217c1.689,0.74,3.987,2.004,6.334,1.613    c2.047-0.295,4.388-0.766,6.022-1.893c1.557-1.07,3.201-2.037,4.14-3.482c0.376-0.578,1.273-1.471,1.34-2.092    c0.78-0.562-11.38-3.092-12.255-3.389c-0.113-1.703,13.351-0.795,12.592-2.447c-1.092-1.662-1.943-3.434-4.425-4.186    c-1.772-0.536-3.476-0.436-5.465-0.162c-4.106,0.565-8.344,1.357-12.329,2.518C182.067,286.539,179.5,287.215,177.171,288.295z" fill="#FFFFFF"/>
		<path d="M184.58,173.006c-2.512,0.731-5.08,1.408-7.408,2.488c-1.077,0.502-1.842,0.857-3.051,1.104    c-0.683,0.141-2.2,0.144-2.739,0.493c1.117-0.11,2.114-0.113,3.026,0.361c0.416,0.49,1.604,1.328,2.307,1.566    c0.762,0.496,1.842,0.75,2.436,1.377c0.68,0.713,1.644,1.273,2.442,1.906c2.02,1.604,4.48,3.097,7.035,4.217    c1.689,0.74,3.987,2.007,6.334,1.612c2.047-0.293,4.388-0.765,6.022-1.891c1.557-1.071,3.201-2.038,4.14-3.482    c0.376-0.579,1.273-1.472,1.34-2.093c0.78-0.563-11.38-3.09-12.255-3.387c-0.113-1.708,13.351-0.796,12.592-2.448    c-1.092-1.662-1.943-3.433-4.425-4.186c-1.771-0.535-3.476-0.435-5.465-0.162C192.802,171.057,188.563,171.847,184.58,173.006z" fill="#FFFFFF"/>
		<path d="M228.956,174.68c-1.913-0.817-3.678-1.87-6.273-1.092c-1.851,0.557-3.28,1.628-4.856,3.017    c-3.253,2.864-6.491,6.004-9.293,9.314c-1.769,2.087-3.614,4.159-5.019,6.448c-0.652,1.059-1.111,1.808-2.02,2.723    c-0.514,0.517-1.833,1.396-2.102,2.014c0.912-0.741,1.778-1.319,2.849-1.432c0.646,0.187,2.167,0.232,2.917,0.031    c0.948-0.006,2.041-0.41,2.919-0.208c1.004,0.229,2.167,0.159,3.231,0.251c2.687,0.233,5.691,0.11,8.568-0.389    c1.9-0.33,4.633-0.554,6.454-2.252c1.616-1.438,3.381-3.201,4.159-5.125c0.74-1.833,1.613-3.626,1.597-5.425    c-0.006-0.722,0.26-2.02-0.04-2.598c0.355-0.942-11.705,3.88-12.638,4.128C218.313,182.667,230.574,175.684,228.956,174.68z" fill="#FFFFFF"/>
		<path d="M335.798,303.893c-0.299,0.578-0.033,1.875-0.043,2.598c-0.014,1.799,0.857,3.592,1.598,5.426    c0.775,1.924,2.543,3.686,4.158,5.125c1.818,1.697,4.555,1.922,6.455,2.252c2.873,0.498,5.881,0.617,8.566,0.389    c1.066-0.092,2.229-0.021,3.232-0.252c0.879-0.201,1.967,0.203,2.92,0.209c0.748,0.199,2.27,0.152,2.916-0.031    c1.07,0.113,1.936,0.691,2.848,1.432c-0.27-0.613-1.588-1.496-2.102-2.012c-0.912-0.916-1.371-1.666-2.02-2.725    c-1.404-2.289-3.25-4.359-5.018-6.447c-2.805-3.314-6.041-6.451-9.295-9.314c-1.574-1.389-3.004-2.461-4.855-3.018    c-2.596-0.777-4.361,0.275-6.273,1.094c-1.619,1.002,10.646,7.982,9.561,9.406C347.501,307.771,335.444,302.949,335.798,303.893z" fill="#FFFFFF"/>
		<path d="M410.298,256.676c-0.91-0.915-1.371-1.665-2.02-2.723c-1.404-2.289-3.25-4.36-5.02-6.447    c-2.803-3.314-6.039-6.451-9.293-9.315c-1.576-1.389-3.004-2.46-4.855-3.017c-2.596-0.777-4.361,0.275-6.273,1.092    c-1.619,1.004,10.646,7.984,9.559,9.407c-0.936-0.248-12.992-5.07-12.637-4.128c-0.301,0.578-0.033,1.875-0.043,2.598    c-0.016,1.799,0.857,3.593,1.598,5.425c0.023,0.058,0.066,0.113,0.092,0.175c-0.576-0.318-1.172-0.6-1.828-0.799    c-2.594-0.777-4.359,0.275-6.271,1.092c-1.619,1.004,10.645,7.984,9.559,9.407c-0.936-0.248-12.992-5.071-12.639-4.128    c-0.299,0.578-0.033,1.875-0.041,2.598c-0.016,1.799,0.855,3.593,1.596,5.425c0.775,1.925,2.543,3.688,4.16,5.125    c1.816,1.699,4.553,1.922,6.453,2.252c2.873,0.499,5.881,0.618,8.568,0.389c1.064-0.092,2.227-0.021,3.23-0.251    c0.879-0.202,1.967,0.202,2.92,0.208c0.748,0.199,2.27,0.153,2.916-0.031c1.07,0.113,1.936,0.692,2.848,1.432    c-0.27-0.615-1.588-1.496-2.102-2.013c-0.912-0.915-1.371-1.665-2.02-2.724c-1.404-2.289-3.25-4.36-5.018-6.447    c-1.398-1.652-2.908-3.262-4.471-4.816c0.945,0.211,1.881,0.352,2.664,0.486c2.873,0.499,5.881,0.618,8.564,0.389    c1.066-0.092,2.229-0.021,3.232-0.251c0.879-0.202,1.967,0.202,2.92,0.208c0.748,0.199,2.27,0.153,2.916-0.03    c1.07,0.113,1.936,0.691,2.848,1.432C412.13,258.071,410.812,257.193,410.298,256.676z" fill="#FFFFFF"/>
		<path d="M407.997,381.432c-1.088-1.092-1.635-1.986-2.412-3.25c-1.678-2.729-3.881-5.201-5.988-7.691    c-3.346-3.955-7.209-7.699-11.09-11.117c-1.881-1.656-3.586-2.938-5.795-3.6c-3.098-0.926-5.205,0.328-7.488,1.305    c-1.932,1.195,12.701,9.529,11.408,11.223c-1.117-0.293-15.506-6.049-15.084-4.922c-0.357,0.691-0.043,2.238-0.049,3.1    c-0.018,2.148,1.023,4.287,1.906,6.475c0.926,2.297,3.033,4.4,4.961,6.117c2.17,2.025,5.432,2.295,7.699,2.686    c3.43,0.598,7.016,0.742,10.221,0.463c1.27-0.109,2.658-0.025,3.855-0.301c1.049-0.24,2.35,0.24,3.482,0.248    c0.896,0.238,2.711,0.184,3.479-0.039c1.275,0.135,2.311,0.826,3.396,1.707C410.181,383.098,408.608,382.047,407.997,381.432z" fill="#FFFFFF"/>
		<path d="M373.144,392.316c-0.508-3.164-1.604-6.289-2.605-9.396c-1.584-4.93-3.729-9.865-6.012-14.506    c-1.107-2.248-2.195-4.082-3.988-5.537c-2.508-2.039-4.936-1.68-7.416-1.65c-2.24,0.371,8.107,13.65,6.266,14.725    c-0.92-0.697-12.029-11.506-12.064-10.303c-0.594,0.502-0.895,2.053-1.229,2.846c-0.834,1.977-0.688,4.352-0.707,6.715    c-0.021,2.475,1.127,5.223,2.256,7.545c1.234,2.699,4.146,4.193,6.092,5.42c2.945,1.857,6.207,3.359,9.275,4.324    c1.215,0.381,2.467,0.99,3.678,1.193c1.062,0.176,2.082,1.115,3.125,1.557c0.738,0.561,2.436,1.203,3.23,1.291    c1.131,0.613,1.822,1.643,2.492,2.877c-0.02-0.803-1.072-2.371-1.404-3.176C373.544,394.82,373.378,393.783,373.144,392.316z" fill="#FFFFFF"/>
		<path d="M312.946,359.912c-0.594,0.5-0.893,2.053-1.227,2.846c-0.836,1.977-0.689,4.354-0.707,6.713    c-0.021,2.475,1.125,5.223,2.256,7.545c1.232,2.699,4.146,4.193,6.092,5.42c2.943,1.857,6.205,3.357,9.275,4.324    c1.217,0.383,2.465,0.992,3.678,1.193c1.062,0.178,2.08,1.117,3.125,1.557c0.736,0.561,2.436,1.203,3.23,1.293    c1.129,0.611,1.82,1.643,2.488,2.875c-0.02-0.801-1.072-2.371-1.404-3.176c-0.588-1.424-0.754-2.461-0.988-3.926    c-0.51-3.164-1.604-6.289-2.605-9.396c-1.584-4.93-3.73-9.867-6.012-14.506c-1.107-2.248-2.195-4.082-3.988-5.537    c-2.508-2.039-4.936-1.682-7.418-1.65c-2.238,0.371,8.113,13.65,6.268,14.725C324.091,369.516,312.983,358.711,312.946,359.912z" fill="#FFFFFF"/>
		<path d="M429.138,374.891c-0.902-3.076-2.381-6.039-3.76-8.998c-2.191-4.689-4.939-9.32-7.785-13.635    c-1.381-2.092-2.689-3.773-4.648-4.994c-2.744-1.707-5.107-1.049-7.568-0.707c-2.176,0.65,9.76,12.529,8.064,13.826    c-1.002-0.578-13.375-9.906-13.262-8.709c-0.527,0.572-0.629,2.148-0.861,2.977c-0.58,2.066-0.137,4.404,0.141,6.748    c0.291,2.461,1.771,5.043,3.184,7.203c1.562,2.525,4.639,3.639,6.725,4.611c3.152,1.475,6.576,2.555,9.744,3.127    c1.254,0.23,2.572,0.674,3.801,0.723c1.074,0.043,2.203,0.848,3.295,1.154c0.803,0.465,2.568,0.887,3.369,0.875    c1.197,0.465,2.014,1.4,2.83,2.539c-0.119-0.793-1.361-2.219-1.789-2.975C429.849,377.32,429.554,376.312,429.138,374.891z" fill="#FFFFFF"/>
		<path d="M419.479,302.756c1.932-2.895,3.518-6.117,4.561-9.16c0.412-1.207,1.053-2.443,1.285-3.648    c0.205-1.055,1.168-2.051,1.637-3.084c0.578-0.723,1.264-2.406,1.375-3.198c0.639-1.114,1.688-1.778,2.938-2.414    c-0.803-0.003-2.4,1.01-3.211,1.321c-1.438,0.551-2.479,0.691-3.947,0.891c-3.176,0.429-6.328,1.441-9.459,2.363    c-4.969,1.459-9.957,3.475-14.654,5.643c-2.275,1.049-4.137,2.09-5.637,3.842c-2.102,2.459-1.805,4.895-1.836,7.375    c0.312,2.25,13.854-7.76,14.881-5.891c-0.574,0.721-7.744,7.758-10.006,10.604c-1.037,0.865-1.689,1.977-2.408,3.066    c-0.758,1.652,12.705,0.74,12.592,2.447c-0.875,0.297-13.035,2.822-12.254,3.389c0.066,0.617,0.963,1.514,1.336,2.092    c0.939,1.441,2.582,2.412,4.141,3.482c1.635,1.127,3.975,1.598,6.021,1.891c2.348,0.393,4.646-0.871,6.334-1.611    c2.557-1.121,5.016-2.613,7.033-4.217c0.801-0.637,1.766-1.193,2.441-1.906c0.594-0.625,1.678-0.879,2.436-1.377    c0.703-0.238,1.891-1.078,2.307-1.566c0.912-0.475,1.91-0.473,3.027-0.361c-0.541-0.35-2.057-0.352-2.738-0.494    c-1.209-0.246-1.971-0.602-3.051-1.104c-2.33-1.084-4.896-1.756-7.408-2.488c-0.75-0.217-1.533-0.363-2.299-0.557    C417.011,306.713,418.378,304.408,419.479,302.756z" fill="#FFFFFF"/>
		<path d="M366.341,160.212c-0.912-0.915-1.371-1.665-2.02-2.723c-1.404-2.289-3.25-4.361-5.02-6.448    c-2.803-3.313-6.039-6.45-9.293-9.314c-1.576-1.389-3.004-2.46-4.855-3.017c-2.596-0.777-4.361,0.275-6.273,1.092    c-1.619,1.004,10.646,7.983,9.559,9.407c-0.936-0.248-12.992-5.071-12.637-4.128c-0.301,0.578-0.033,1.875-0.043,2.598    c-0.016,1.799,0.857,3.592,1.598,5.425c0.773,1.925,2.543,3.688,4.158,5.125c1.818,1.699,4.553,1.922,6.453,2.252    c2.873,0.499,5.881,0.618,8.568,0.389c1.064-0.092,2.229-0.021,3.232-0.251c0.877-0.202,1.967,0.202,2.918,0.208    c0.75,0.199,2.271,0.153,2.916-0.031c1.072,0.113,1.938,0.692,2.85,1.432C368.173,161.608,366.854,160.729,366.341,160.212z" fill="#FFFFFF"/>
		<path d="M303.177,66.659c-0.184,0.355-0.021,1.154-0.025,1.594c-0.01,1.104,0.527,2.206,0.982,3.333    c0.477,1.181,1.561,2.264,2.555,3.148c1.117,1.043,2.797,1.181,3.963,1.383c1.766,0.306,3.613,0.379,5.264,0.239    c0.654-0.055,1.367-0.012,1.986-0.153c0.537-0.125,1.207,0.123,1.793,0.129c0.461,0.122,1.395,0.095,1.789-0.019    c0.658,0.07,1.191,0.425,1.75,0.881c-0.164-0.379-0.975-0.918-1.291-1.236c-0.559-0.563-0.842-1.022-1.242-1.674    c-0.863-1.404-1.998-2.678-3.084-3.963c-1.723-2.035-3.713-3.962-5.711-5.722c-0.969-0.854-1.844-1.511-2.982-1.854    c-1.594-0.478-2.678,0.168-3.855,0.67c-0.994,0.615,6.539,4.905,5.871,5.78C310.366,69.043,302.958,66.081,303.177,66.659z" fill="#FFFFFF"/>
		<path d="M348.724,258.561c-0.184,0.355-0.021,1.153-0.023,1.594c-0.01,1.104,0.525,2.206,0.982,3.333    c0.477,1.184,1.561,2.264,2.555,3.148c1.117,1.043,2.797,1.181,3.965,1.383c1.766,0.306,3.615,0.379,5.264,0.239    c0.654-0.055,1.367-0.013,1.986-0.156c0.539-0.123,1.209,0.123,1.793,0.128c0.461,0.123,1.395,0.095,1.789-0.018    c0.658,0.07,1.191,0.425,1.752,0.881c-0.166-0.379-0.977-0.918-1.293-1.236c-0.559-0.563-0.84-1.022-1.242-1.674    c-0.861-1.408-1.998-2.678-3.084-3.963c-1.723-2.035-3.711-3.962-5.709-5.722c-0.971-0.854-1.846-1.512-2.984-1.854    c-1.594-0.477-2.68,0.168-3.855,0.67c-0.994,0.615,6.539,4.905,5.875,5.78C355.915,260.945,348.507,257.982,348.724,258.561z" fill="#FFFFFF"/>
		<path d="M301.921,19.866c-0.529,0.529-0.967,0.795-1.578,1.172c-1.328,0.814-2.527,1.885-3.74,2.91    c-1.922,1.625-3.742,3.504-5.404,5.392c-0.805,0.915-1.426,1.741-1.75,2.818c-0.449,1.505,0.16,2.531,0.635,3.638    c0.58,0.939,4.633-6.175,5.455-5.544c-0.145,0.542-2.941,7.537-2.393,7.332c0.336,0.174,1.09,0.021,1.506,0.024    c1.043,0.009,2.084-0.499,3.148-0.927c1.117-0.45,2.139-1.475,2.975-2.411c0.984-1.056,1.113-2.641,1.307-3.742    c0.291-1.668,0.357-3.412,0.223-4.97c-0.053-0.618-0.012-1.291-0.146-1.875c-0.117-0.511,0.115-1.142,0.119-1.692    c0.117-0.435,0.088-1.319-0.018-1.692c0.062-0.622,0.4-1.123,0.828-1.653C302.729,18.804,302.222,19.569,301.921,19.866z" fill="#FFFFFF"/>
		<path d="M313.13,33.893c-0.529,0.529-0.967,0.796-1.578,1.172c-1.328,0.814-2.527,1.885-3.74,2.91    c-1.922,1.625-3.742,3.504-5.404,5.392c-0.645,0.731-1.123,1.441-1.475,2.233c-0.016-0.257-0.031-0.514-0.082-0.75    c-0.117-0.511,0.115-1.142,0.123-1.692c0.115-0.435,0.088-1.316-0.02-1.692c0.064-0.621,0.4-1.123,0.83-1.652    c-0.359,0.156-0.869,0.921-1.166,1.218c-0.529,0.529-0.967,0.795-1.58,1.172c-1.328,0.814-2.527,1.885-3.738,2.91    c-1.922,1.625-3.742,3.504-5.404,5.392c-0.805,0.915-1.43,1.741-1.75,2.818c-0.449,1.505,0.158,2.531,0.633,3.638    c0.582,0.939,4.633-6.175,5.457-5.544c-0.145,0.542-2.941,7.537-2.395,7.332c0.338,0.174,1.09,0.021,1.506,0.024    c1.045,0.009,2.084-0.499,3.148-0.927c1.117-0.45,2.141-1.475,2.975-2.411c0.986-1.056,1.115-2.641,1.307-3.742    c0.141-0.811,0.225-1.637,0.264-2.454c0.086,0.192,0.172,0.389,0.258,0.584c0.58,0.939,4.633-6.175,5.455-5.544    c-0.145,0.542-2.941,7.537-2.393,7.332c0.336,0.175,1.09,0.021,1.506,0.024c1.043,0.009,2.084-0.499,3.148-0.927    c1.117-0.45,2.139-1.475,2.971-2.412c0.986-1.056,1.117-2.641,1.307-3.742c0.287-1.667,0.357-3.412,0.225-4.969    c-0.053-0.618-0.014-1.292-0.148-1.876c-0.115-0.511,0.117-1.142,0.119-1.692c0.117-0.435,0.09-1.319-0.018-1.692    c0.064-0.621,0.4-1.123,0.83-1.652C313.938,32.828,313.427,33.593,313.13,33.893z" fill="#FFFFFF"/>
		<path d="M334.485,89.48c-0.529,0.53-0.967,0.796-1.578,1.172c-1.328,0.813-2.527,1.885-3.74,2.91    c-1.922,1.625-3.742,3.504-5.404,5.392c-0.805,0.915-1.426,1.741-1.75,2.818c-0.449,1.505,0.16,2.53,0.635,3.638    c0.58,0.939,4.629-6.175,5.455-5.545c-0.145,0.542-2.941,7.537-2.393,7.332c0.336,0.174,1.086,0.021,1.506,0.024    c1.043,0.009,2.084-0.499,3.145-0.927c1.117-0.45,2.139-1.475,2.975-2.411c0.986-1.056,1.117-2.641,1.307-3.743    c0.291-1.667,0.357-3.412,0.225-4.969c-0.053-0.618-0.014-1.292-0.148-1.876c-0.115-0.511,0.117-1.141,0.119-1.692    c0.117-0.435,0.09-1.319-0.018-1.692c0.064-0.621,0.4-1.123,0.83-1.652C335.296,88.419,334.786,89.184,334.485,89.48z" fill="#FFFFFF"/>
		<path d="M404.196,204.815c-2.557,0.248-5.111,0.964-7.648,1.606c-4.023,1.019-8.08,2.482-11.906,4.073    c-1.854,0.771-3.375,1.548-4.629,2.907c-1.756,1.903-1.594,3.862-1.695,5.851c0.184,1.812,11.332-5.796,12.096-4.266    c-0.605,0.701-9.811,9.036-8.852,9.128c0.369,0.501,1.598,0.817,2.211,1.126c1.539,0.768,3.447,0.771,5.334,0.906    c1.98,0.141,4.236-0.637,6.15-1.42c2.223-0.851,3.562-3.106,4.646-4.599c1.633-2.261,3.002-4.792,3.928-7.197    c0.367-0.955,0.918-1.925,1.143-2.882c0.195-0.838,1-1.606,1.404-2.42c0.486-0.563,1.086-1.888,1.195-2.519    c0.545-0.872,1.408-1.374,2.428-1.845c-0.643-0.027-1.953,0.737-2.613,0.961C406.216,204.619,405.376,204.699,404.196,204.815z" fill="#FFFFFF"/>
		<path d="M349.024,207.658c0.107,0.615,1.059,1.447,1.471,2.001c1.029,1.38,2.732,2.237,4.357,3.207    c1.705,1.016,4.07,1.337,6.133,1.497c2.365,0.239,4.578-1.172,6.215-2.02c2.477-1.282,4.834-2.932,6.744-4.664    c0.76-0.686,1.684-1.307,2.316-2.062c0.551-0.661,1.615-0.985,2.342-1.53c0.688-0.282,1.816-1.197,2.199-1.714    c0.879-0.532,1.873-0.593,2.996-0.557c-0.562-0.312-2.074-0.22-2.766-0.315c-1.225-0.168-2.008-0.474-3.115-0.906    c-2.396-0.93-5-1.438-7.553-2.004c-4.051-0.9-8.332-1.414-12.467-1.714c-2.004-0.144-3.711-0.135-5.443,0.514    c-2.426,0.909-3.16,2.732-4.143,4.461c-0.652,1.698,12.727-0.083,12.723,1.628C360.181,203.839,348.21,207.147,349.024,207.658z" fill="#FFFFFF"/>
		<path d="M360.374,113.551c-2.396-0.93-4.998-1.438-7.553-2.004c-4.051-0.9-8.332-1.417-12.467-1.714    c-2.004-0.144-3.711-0.134-5.443,0.514c-2.426,0.909-3.16,2.733-4.143,4.461c-0.652,1.698,12.727-0.083,12.723,1.628    c-0.857,0.355-12.828,3.66-12.01,4.174c0.107,0.615,1.059,1.447,1.471,2.001c1.029,1.38,2.732,2.237,4.357,3.207    c1.705,1.016,4.07,1.337,6.133,1.497c2.365,0.239,4.578-1.172,6.215-2.02c2.477-1.282,4.834-2.932,6.748-4.664    c0.758-0.686,1.682-1.307,2.312-2.062c0.555-0.661,1.615-0.985,2.342-1.53c0.686-0.285,1.816-1.197,2.199-1.713    c0.879-0.533,1.873-0.594,2.996-0.557c-0.562-0.312-2.074-0.22-2.766-0.315C362.269,114.285,361.481,113.982,360.374,113.551z" fill="#FFFFFF"/>
		<path d="M326.45,279.681c0.068,0.618,0.965,1.515,1.338,2.093c0.939,1.441,2.582,2.412,4.139,3.482    c1.635,1.127,3.977,1.598,6.023,1.892c2.346,0.392,4.645-0.872,6.334-1.612c2.555-1.12,5.016-2.613,7.031-4.217    c0.803-0.637,1.766-1.194,2.445-1.907c0.594-0.624,1.674-0.878,2.436-1.377c0.703-0.239,1.891-1.077,2.307-1.566    c0.912-0.475,1.91-0.472,3.027-0.361c-0.541-0.349-2.057-0.352-2.738-0.493c-1.209-0.248-1.971-0.603-3.051-1.104    c-2.33-1.083-4.896-1.756-7.408-2.488c-3.984-1.16-8.227-1.952-12.33-2.519c-1.988-0.272-3.695-0.373-5.465,0.162    c-2.479,0.75-3.332,2.521-4.424,4.186c-0.76,1.653,12.705,0.741,12.592,2.448C337.831,276.594,325.671,279.118,326.45,279.681z" fill="#FFFFFF"/>
		<path d="M376.907,299.322c2.555-1.119,5.016-2.613,7.035-4.215c0.801-0.637,1.766-1.193,2.441-1.908    c0.594-0.623,1.676-0.877,2.436-1.377c0.703-0.238,1.891-1.076,2.307-1.566c0.912-0.475,1.91-0.471,3.027-0.361    c-0.543-0.348-2.057-0.352-2.738-0.492c-1.209-0.248-1.971-0.603-3.051-1.104c-2.33-1.083-4.895-1.757-7.41-2.487    c-3.982-1.16-8.225-1.953-12.328-2.519c-1.988-0.272-3.695-0.374-5.465,0.162c-2.479,0.749-3.332,2.524-4.424,4.187    c-0.76,1.654,12.705,0.743,12.592,2.447c-0.877,0.297-13.037,2.822-12.256,3.387c0.066,0.619,0.963,1.516,1.34,2.094    c0.936,1.441,2.582,2.412,4.141,3.482c1.633,1.127,3.975,1.598,6.021,1.891C372.919,301.328,375.22,300.064,376.907,299.322z" fill="#FFFFFF"/>
		<path d="M388.366,175.497c-2.328-1.083-4.893-1.756-7.408-2.488c-3.984-1.16-8.225-1.952-12.328-2.518    c-1.99-0.272-3.697-0.374-5.465,0.162c-2.48,0.75-3.334,2.524-4.426,4.186c-0.758,1.655,12.705,0.741,12.592,2.448    c-0.875,0.296-13.035,2.821-12.256,3.387c0.068,0.618,0.965,1.515,1.342,2.093c0.936,1.441,2.582,2.411,4.139,3.482    c1.635,1.126,3.977,1.597,6.023,1.891c2.346,0.392,4.645-0.872,6.334-1.613c2.555-1.12,5.016-2.613,7.035-4.216    c0.801-0.637,1.766-1.193,2.441-1.907c0.594-0.624,1.678-0.878,2.436-1.377c0.703-0.239,1.891-1.077,2.307-1.566    c0.912-0.475,1.91-0.471,3.027-0.361c-0.541-0.349-2.057-0.352-2.738-0.493C390.208,176.351,389.444,175.996,388.366,175.497z" fill="#FFFFFF"/>
		<path d="M333.503,179.962c-0.299,0.578-0.033,1.875-0.043,2.598c-0.014,1.799,0.857,3.593,1.598,5.425    c0.775,1.925,2.543,3.688,4.158,5.126c1.818,1.698,4.555,1.921,6.455,2.252c2.873,0.499,5.881,0.618,8.566,0.389    c1.066-0.092,2.229-0.021,3.232-0.251c0.879-0.202,1.967,0.202,2.92,0.208c0.748,0.199,2.27,0.153,2.916-0.031    c1.07,0.113,1.936,0.692,2.848,1.432c-0.27-0.615-1.588-1.496-2.102-2.013c-0.912-0.915-1.371-1.665-2.02-2.724    c-1.404-2.289-3.25-4.36-5.02-6.447c-2.803-3.314-6.039-6.451-9.293-9.315c-1.576-1.389-3.004-2.46-4.855-3.017    c-2.596-0.777-4.361,0.275-6.273,1.093c-1.619,1.003,10.646,7.983,9.561,9.406C345.204,183.842,333.149,179.019,333.503,179.962z" fill="#FFFFFF"/>
		<path d="M343.524,545.029c-1.264-1.121-2.318-3.492-3.242-4.906c-2.732-4.176-10.527-7.691-13.752-8.01    c-3.482-0.346-7.721-1.977-10.572-4.406c-1.285-1.096-3.287-2.326-4.482-3.15c-1.197-0.822-2.73-2.889-3.725-4.256    c-0.48-0.66-0.98-1.379-1.424-2.047c-0.936-1.408-1.719-3.979-2.059-5.633c-0.371-1.824-0.891-4.006-1.451-5.662    c-0.541-1.6-2.014-3.812-2.68-5.363c-1.135-2.633-2.801-6.469-3.611-9.07c-0.504-1.613-0.137-4.199-0.189-5.887    c-0.463-15.184-4.152-30.176-4.152-45.074c0-7.721,0-14.27,0-21.701c0-1.689,0.9-4.066,1.166-5.734    c0.799-5,0.504-15.445,0.406-17.477c-0.234-5.016,1.684-8.213,2.379-12.559c0.266-1.668,0.277-4.338,0.877-5.92    c0.98-2.59,2.684-6.381,3.828-9c0.676-1.549,2.457-3.373,3.369-4.799c1.318-2.059,2.488-5.121,2.953-6.01    c0.918-1.771,3.553-3.596,5.9-4.586c1.557-0.658,3.518-2.047,4.986-2.883c3.449-1.959,10.473-3.898,14.707-5.258    c1.609-0.516,3.182,0.074,4.234,0.992c0.643,0.562,1.35,1.133,1.699,1.848c1.146,2.338,1.279,5.117,1.236,7.785    c-0.027,1.689,1.771,3.219,2.393,1.648c0.275-0.691,0.312-1.582,0.303-2.539c-0.018-1.689,1.408-2.586,2.408-1.225    c1.523,2.072,2.258,5.248,3.543,7.127c0.955,1.396,2.521,0.168,2.195-1.49c-0.383-1.922-1.074-3.506-1.68-5.227    c-0.561-1.594-2.035-3.609-3.32-4.705c-1.129-0.961-2.301-2.139-3.17-3.25c-1.041-1.332,0.027-2.732,1.68-3.092    c2.965-0.645,6.416-1.869,9.365-2.037c1.688-0.096,4.031,1.26,5.252,2.43c1.57,1.5,3.672,3.51,5.287,5.006    c1.24,1.148,2.406,3.408,3.066,4.963c0.76,1.781,2.018,3.756,3.482,4.977c1.297,1.082,2.781-0.199,2.441-1.855    c-1.336-6.529-6.566-10.24-8.711-15.74c-0.615-1.576,0.465-3.521,1.873-4.459c1.398-0.93,2.783-1.951,4.164-2.492    c0.625-0.246,1.291-0.113,1.912,0.219c0.031,0.381,0.068,0.754,0.064,1.035c-0.016,1.799,0.857,3.592,1.598,5.426    c0.773,1.924,2.543,3.688,4.158,5.125c1.818,1.699,4.553,1.922,6.453,2.252c2.873,0.498,5.883,0.619,8.568,0.389    c1.064-0.092,2.229-0.021,3.232-0.25c0.877-0.203,1.967,0.201,2.918,0.207c0.75,0.199,2.271,0.152,2.916-0.031    c1.072,0.113,1.938,0.693,2.85,1.434c-0.27-0.615-1.588-1.496-2.102-2.014c-0.912-0.916-1.371-1.664-2.02-2.725    c-1.406-2.287-3.25-4.359-5.02-6.447c-2.803-3.312-6.041-6.449-9.293-9.314c-1.576-1.389-3.006-2.459-4.855-3.018    c-0.76-0.225-1.434-0.268-2.076-0.234c0.479-0.41,0.943-0.803,1.35-1.154c1.289-1.125,2.223-2.367,3.449-3.695    c1.146-1.244,2.893-3.418,4.412-4.156c2.057-0.998,4.793-1.141,6.359-2.316c1.352-1.014,0.309-2.496-0.852-2.305    c-1.16,0.193-1.777-0.375-1.016-1.012c0.766-0.641-0.391-1.455-1.955-0.814c-3.045,1.248-5.973,4.137-8.365,6.852    c-1.117,1.266-3.434,2.355-4.836,3.301c-2.635,1.781-4.795,5.543-7.58,7.256c-1.438,0.887-3.717,1.967-5.227,2.727    c-1.156,0.582-2.566,1.156-3.82,1.598c-1.596,0.557-3.969,1.641-5.637,1.902c-2.818,0.443-7.266,0.572-10.389,0.729    c-1.689,0.086-3.805-0.898-5.301-1.689c-3.363-1.773-9.451-3.678-10.83-3.678c-7.098,0-9.455-2.457-7.627-8.363    c0.498-1.615,2.059-2.408,2.803-1.367c0.742,1.041,2.268,0.609,2.674-0.352s-0.936-2.543-1.635-4.086    c-0.629-1.395-1.545-2.797-2.291-4.232c-0.689-1.254-1.268-2.551-1.734-3.891c-0.557-1.596-1.457-2.541-2.299-2.551    c-0.842-0.008,0.859-1.512,1.297-3.145c0.404-1.516,0.395-3.613,0.316-5.4c-0.074-1.689,1.211-2.684,2.453-1.539    c0.064,0.057,0.129,0.119,0.195,0.176c1.283,1.102,3.141-1.021,4.613-0.191c1.789,1.01,4.58,4.17,6.811,6.082    c1.281,1.102,2.197,0.205,1.699-1.406c-0.334-1.084-0.672-2.168-1.004-3.25c-0.5-1.615-1.885-3.664-3.076-4.605    c-1.189-0.943-3.434-1.814-5.027-2.377c-3.197-1.127-6.166-3.842-8.832-6.434c-1.211-1.177-2.006-3.521-1.18-4.997    c0.789-1.407,1.936-2.94,3.057-4.18c1.133-1.255,2.588-3.412,3.498-4.835c1.312-2.059,3.432-4.645,5.254-6.249    c1.266-1.117,3.279-2.729,4.559-3.837c3.125-2.702,8.676-5.009,12.678-6.463c1.588-0.579,3.697-2.139,5.098-3.087    c2.385-1.616,6.123-3.25,8.902-3.473c1.686-0.135,4.293,0.998,5.578,2.096c1.967,1.686,3.166,4.226,5.08,5.74    c1.324,1.05,2.57-0.165,1.779-1.658c-2.506-4.75-8.588-10.358-5.32-12.549c5.682-3.788,5.719-4.819,9.648-1.355    c1.266,1.117,3.936,1.466,3.451-0.153c-0.25-0.839-0.789-1.775-1.451-2.543c-1.104-1.279-2.291-2.231-2.811-2.638    c-0.518-0.404-2.012-2.524-0.771-2.417c1.236,0.107,1.395-2.978,1.955-4.572c0.248-0.704,0.475-1.484,0.658-2.23    c0.406-1.641-0.994-2.907-2.045-1.582c-0.762,0.96-1.314,2.249-1.836,3.344c-0.729,1.527-2.338,3.553-3.326,4.92    c-0.984,1.362-2.318,2.625-3.764,3.703c-0.459-0.395-0.971-0.786-1.248-1.068c-0.912-0.915-1.371-1.665-2.02-2.723    c-1.404-2.289-3.25-4.361-5.02-6.448c-2.803-3.314-6.039-6.45-9.293-9.314c-1.576-1.389-3.004-2.46-4.855-3.017    c-2.596-0.777-4.361,0.275-6.273,1.092c-0.119,0.074-0.145,0.193-0.123,0.328c-0.098-0.184-0.191-0.361-0.305-0.569    c-0.803-1.487,1.367-3.072,2.91-3.767c0.842-0.379,1.719-0.847,2.496-1.343c1.426-0.906,1.559-2.334,0.578-2.515    c-0.975-0.178-2.275,0.884-3.539,0.532c-1.264-0.352-3.098,1.123-4.781,0.998c-1.879-0.138-3.672-0.798-5.578-1.315    c-2.889-0.777-4.984,0.254-7.344,1.034c-1.604,0.529-2.77-0.294-2.273-1.423c0.496-1.126,1.381-1.561,2.342-1.129    c0.961,0.432,1.609-0.948,0.758-2.411c-1.025-1.763-2.613-3.822-4.105-5.254c-1.223-1.169-2.516-0.346-2.346,1.337    c0.086,0.839,0.193,1.585,0.291,2.304c0.227,1.674-0.283,3.666-0.859,4.866c-0.227,0.468-0.752,0.841-2.127,0.823    c-3.598-0.04-4.705,0.615-6.195,2.574c-1.023,1.346-2.859,3.341-4.08,4.51c-5.104,4.878-7.863,10.343-12.869,14.948    c-1.244,1.145-2.352,0.587-2.412-1.099c-0.193-5.269-0.787-10.704-0.922-15.976c0.23,0.089,0.447,0.174,0.615,0.26    c1.539,0.768,3.445,0.771,5.334,0.906c1.98,0.141,4.234-0.636,6.15-1.419c2.223-0.851,3.564-3.106,4.645-4.6    c1.635-2.261,3.002-4.792,3.93-7.197c0.367-0.955,0.918-1.925,1.143-2.883c0.195-0.838,1-1.606,1.404-2.42    c0.486-0.563,1.086-1.888,1.195-2.518c0.545-0.872,1.408-1.374,2.428-1.845c-0.643-0.028-1.953,0.737-2.611,0.961    c-1.168,0.397-2.008,0.477-3.188,0.593c-2.555,0.248-5.111,0.964-7.648,1.607c-3.934,0.997-7.9,2.426-11.652,3.978    c0.797-2.313,1.904-4.513,3.465-6.542c2.969-3.862,6.523-7.197,10.01-10.572c2.48-2.387,5.055-6.999,8.377-8.28    c6.98-2.696,12.418,3.546,15.375,9.259c0.775,1.502,1.523,2.515,1.887,2.252c0.367-0.263,1.307-1.34,0.74-2.647    c-0.564-1.307,0.727-2.249,2.203-1.429c0.615,0.343,1.25,0.719,1.92,1.041c1.523,0.734,2.539-0.627,1.328-1.806    c-1.75-1.698-4.264-2.301-6.17-3.598c-1.398-0.952-3.412-2.497-4.789-3.477c-1.857-1.319-3.943-3.317-5.789-4.03    c-2.775-1.062-2.463-2.029-1.719-3.599c0.195,0.184,0.391,0.37,0.584,0.542c1.471,1.374,3.688,1.558,5.227,1.824    c2.324,0.404,4.762,0.502,6.936,0.312c0.863-0.073,1.807-0.018,2.617-0.205c0.711-0.163,1.594,0.162,2.363,0.168    c0.607,0.163,1.838,0.125,2.361-0.024c0.865,0.092,1.566,0.56,2.307,1.16c-0.217-0.499-1.285-1.211-1.701-1.628    c-0.736-0.74-1.109-1.349-1.637-2.206c-1.139-1.854-2.631-3.531-4.064-5.22c-2.129-2.516-4.574-4.89-7.041-7.093    c0.65-0.829,1.354-1.622,1.971-2.228c1.561-1.527,3.508-3.736,5.387-5.208c1.33-1.044,2.818-0.686,3.01,0.281    c0.193,0.967,1.639,1.937,2.148,0.942c0.512-0.994-0.682-2.861,0.457-4.112c1.166-1.282,3.117-2.913,4.645-4.205    c1.289-1.092,0.803-2.151-0.793-1.591c-0.195,0.067-0.383,0.144-0.566,0.22c-1.551,0.67-2.729,0.912-2.729,0.331    s-1.359-0.734-2.791,0.159c-2.484,1.545-4.82,4.058-6.998,5.462c-1.42,0.915-3.492,2.252-4.643,3.492    c-1.098,1.181-2.404,2.356-3.58,3.546c-2.062-0.59-3.482,0.239-5.016,0.894c-0.51,0.315,0.689,1.368,2.283,2.601    c-0.482,0.792-1,1.665-1.496,2.472c-1.889-0.654-3.393-1.102-3.281-0.795c-0.24,0.468-0.027,1.518-0.033,2.102    c-0.008,0.967,0.309,1.934,0.691,2.907c-0.291,0.493-0.572,0.998-0.902,1.441c-1.006,1.358-2.344,3.442-3.311,4.829    c-2.457,3.531-8.607,6.787-10.881,9.443c-2.584,3.014-10.512,12.531-10.512,4.272c0-2.105-0.555-10.401,0.109-14.673    c0.262-1.67,1.703-3.886,2.498-5.376c2.008-3.757,5.076-6.423,8.004-9.599c1.148-1.242,3.238-2.947,4.449-4.125    c1.256-1.224,1.684-1.668,5.268,1.462c1.4,1.224,2.486,3.372,3.84,4.92c1.111,1.273,2.475,0.337,1.98-1.276    c-1.037-3.372-3.547-5.594-5.955-8.525c-2.559-3.109,1.459-5.138,3.699-7.521c1.156-1.23,2.58-3.274,3.943-4.272    c2.035-1.487,3.611-3.137,5.766-4.302c1.488-0.805,3.629-2.222,5.193-2.864c2.051-0.842,5.023-1.689,7.16-2.732    c1.518-0.741,1.031-1.836-0.633-1.533c-3.207,0.581-6.16,1.909-9.373,2.693c-1.641,0.401-2.984-0.75-1.961-1.579    c0.713-0.579,0.24-1.304-0.58-1.38c0.23-0.514,0.457-1.028,0.576-1.54c0.166-0.71,0.844-1.361,1.188-2.05    c0.412-0.475,0.92-1.598,1.012-2.133c0.463-0.738,1.191-1.163,2.055-1.564c-0.545-0.021-1.652,0.625-2.213,0.814    c-0.988,0.337-1.699,0.404-2.701,0.502c-2.168,0.208-4.328,0.817-6.477,1.358c-3.404,0.863-6.842,2.103-10.082,3.449    c-1.57,0.655-2.857,1.31-3.922,2.463c-1.488,1.613-1.35,3.271-1.436,4.954c0.156,1.533,9.592-4.905,10.242-3.611    c-0.512,0.594-8.309,7.653-7.498,7.729c0.314,0.422,1.354,0.692,1.875,0.955c1.305,0.652,2.92,0.652,4.518,0.768    c0.209,0.015,0.426-0.016,0.637-0.021c-6.869,6.472-12.629,12.209-19.561,18.17c-1.281,1.102-2.346,0.612-2.346-1.08    c0.002-4.56,0.234-8.981,2.754-12.316c1.018-1.35,2.799-3.445,4.223-4.36c1.465-0.946,3.236-1.417,4.578-2.372    c1.373-0.982,0.395-2.479-1.271-2.182c-3.523,0.633-5.449,2.375-8.096,3.638c-1.523,0.729-2.893-0.346-2.906-2.038    c-0.064-7.479,0.092-15.282,4.705-20.202c1.156-1.233,2.266-3.424,3.066-4.911c2.193-4.061,8.795-5.833,13.104-8.773    c-0.01,0.205-0.016,0.41-0.025,0.618c0.111,1.083,6.777-3.467,7.236-2.552c-0.359,0.419-5.869,5.404-5.293,5.459    c0.223,0.3,0.955,0.49,1.324,0.673c0.922,0.459,2.062,0.462,3.189,0.542c1.184,0.086,2.533-0.379,3.678-0.851    c1.328-0.508,2.133-1.857,2.779-2.751c0.979-1.353,1.795-2.867,2.35-4.306c0.221-0.569,0.547-1.15,0.682-1.723    c0.117-0.502,0.598-0.961,0.84-1.447c0.289-0.336,0.648-1.129,0.715-1.505c0.328-0.521,0.842-0.82,1.451-1.105    c-0.383-0.015-1.17,0.441-1.561,0.575c-0.697,0.239-1.199,0.285-1.906,0.355c-1.531,0.146-3.057,0.575-4.576,0.96    c-2.404,0.609-4.83,1.484-7.119,2.436c-0.605,0.254-1.145,0.52-1.637,0.832c-0.355-0.223-0.861-0.312-1.457-0.18    c-0.803,0.177-1.662,0.41-2.516,0.667c0.012-0.07,0.023-0.15,0.033-0.214c0.291-1.667,0.357-3.412,0.225-4.969    c-0.053-0.618-0.014-1.292-0.148-1.873c-0.115-0.511,0.117-1.141,0.119-1.692c0.117-0.435,0.09-1.316-0.018-1.692    c0.064-0.621,0.4-1.123,0.83-1.652c-0.359,0.156-0.869,0.921-1.166,1.218c-0.529,0.529-0.965,0.796-1.58,1.172    c-1.328,0.814-2.527,1.885-3.738,2.91c-1.922,1.625-3.742,3.504-5.404,5.392c-0.805,0.915-1.426,1.741-1.75,2.818    c-0.33,1.108-0.086,1.953,0.254,2.763c-1.311,0.622-2.943,1.246-4.385,1.708c-1.609,0.514-2.984-0.655-3.061-2.344    c-0.232-5.211-0.682-11.686,1.98-15.303c1-1.362,2.496-3.363,3.475-4.743c1.674-2.362,4.738-4.912,6.314-6.334    c1.93-1.738,4.1-1.059,5.932-1.003c1.689,0.049,1.682-1.591,0.49-2.335c-1.189-0.744-0.912-2.424,0.426-3.461    c1.053-0.814,2.102-1.665,2.953-2.57c1.156-1.233,0.244-2.564-1.361-2.044c-6.674,2.163-13.518,10.768-18.674,16.245    c-1.158,1.23-2.178,0.805-2.23-0.884c-0.152-5.119-0.395-14.59,0.643-19.039c0.383-1.646,1.861-3.77,2.541-5.318    c1.135-2.589,2.68-4.804,3.738-7.503c0.619-1.573-0.471-2.445-1.566-1.16c-1.453,1.704-2.705,4.231-3.828,5.997    c-0.908,1.426-2.145,0.673-2.145-1.016c0-4.587,0-9.177,0-13.758c0-3.179,1.07-5.486,1.686-8.188    c0.377-1.646-0.545-3.039-1.23-2.307c-0.596,0.633-0.92,0.128-0.914-1.108c0.131,0.328,0.275,0.649,0.416,0.973    c0.582,0.939,4.633-6.175,5.455-5.545c-0.143,0.542-2.939,7.537-2.393,7.332c0.338,0.174,1.086,0.021,1.506,0.024    c1.043,0.009,2.084-0.499,3.146-0.927c1.115-0.45,2.139-1.475,2.975-2.411c0.984-1.056,1.115-2.641,1.305-3.743    c0.291-1.667,0.359-3.412,0.225-4.969c-0.053-0.618-0.012-1.292-0.146-1.873c-0.117-0.511,0.115-1.142,0.119-1.692    c0.115-0.435,0.088-1.316-0.02-1.692c0.064-0.621,0.402-1.123,0.83-1.652c-0.357,0.156-0.869,0.921-1.166,1.218    c-0.529,0.529-0.963,0.795-1.578,1.172c-1.328,0.814-2.527,1.885-3.74,2.91c-1.922,1.625-3.742,3.503-5.404,5.392    c-0.66,0.752-1.152,1.475-1.502,2.295c-0.088-1.414-0.398-2.714-1.276-3.5c-0.878,0.786-1.188,2.087-1.276,3.5    c-0.349-0.82-0.841-1.545-1.502-2.298c-1.661-1.885-3.482-3.764-5.404-5.392c-1.212-1.025-2.411-2.096-3.739-2.91    c-0.615-0.376-1.05-0.643-1.579-1.172c-0.3-0.297-0.811-1.062-1.166-1.218c0.428,0.529,0.765,1.031,0.829,1.652    c-0.107,0.374-0.135,1.254-0.019,1.692c0.003,0.551,0.239,1.184,0.12,1.692c-0.135,0.582-0.092,1.258-0.147,1.873    c-0.135,1.558-0.064,3.302,0.224,4.969c0.189,1.102,0.321,2.687,1.306,3.743c0.835,0.936,1.857,1.961,2.975,2.411    c1.065,0.428,2.102,0.936,3.146,0.927c0.419-0.003,1.172,0.15,1.506-0.025c0.547,0.205-2.25-6.787-2.393-7.332    c0.823-0.63,4.875,6.484,5.456,5.545c0.141-0.328,0.285-0.649,0.416-0.973c0.007,1.236-0.317,1.741-0.915,1.107    c-0.686-0.731-1.606,0.661-1.23,2.308c0.615,2.702,1.686,5.009,1.686,8.188c0,4.581,0,9.171,0,13.758    c0,1.689-1.236,2.438-2.145,1.016c-1.126-1.766-2.375-4.29-3.828-5.998c-1.096-1.285-2.185-0.413-1.567,1.16    c1.059,2.696,2.604,4.915,3.74,7.503c0.679,1.548,2.157,3.672,2.54,5.318c1.038,4.453,0.795,13.923,0.643,19.04    c-0.052,1.689-1.071,2.115-2.23,0.884c-5.156-5.474-11.999-14.079-18.672-16.246c-1.606-0.52-2.519,0.811-1.362,2.044    c0.851,0.906,1.9,1.756,2.953,2.57c1.337,1.034,1.616,2.717,0.425,3.461c-1.19,0.743-1.2,2.384,0.49,2.334    c1.833-0.055,4.002-0.734,5.933,1.004c1.576,1.42,4.639,3.972,6.313,6.334c0.976,1.38,2.472,3.381,3.476,4.743    c2.659,3.614,2.212,10.089,1.98,15.303c-0.077,1.689-1.448,2.854-3.06,2.344c-1.444-0.462-3.075-1.086-4.385-1.708    c0.34-0.811,0.584-1.655,0.254-2.763c-0.321-1.074-0.945-1.903-1.75-2.818c-1.662-1.885-3.482-3.764-5.404-5.392    c-1.212-1.025-2.412-2.096-3.74-2.91c-0.615-0.376-1.049-0.643-1.579-1.172c-0.3-0.297-0.811-1.062-1.166-1.218    c0.428,0.529,0.765,1.031,0.829,1.652c-0.107,0.373-0.134,1.254-0.018,1.692c0.003,0.551,0.239,1.184,0.119,1.692    c-0.135,0.582-0.092,1.258-0.147,1.873c-0.134,1.558-0.064,3.302,0.224,4.97c0.012,0.064,0.024,0.147,0.034,0.214    c-0.851-0.254-1.714-0.486-2.516-0.667c-0.597-0.131-1.104-0.042-1.457,0.181c-0.493-0.312-1.031-0.578-1.637-0.832    c-2.289-0.952-4.716-1.827-7.121-2.436c-1.518-0.386-3.045-0.814-4.575-0.961c-0.707-0.067-1.209-0.116-1.907-0.355    c-0.395-0.135-1.178-0.59-1.561-0.575c0.609,0.282,1.126,0.582,1.451,1.104c0.067,0.38,0.425,1.172,0.716,1.506    c0.242,0.486,0.722,0.945,0.838,1.447c0.135,0.572,0.462,1.154,0.683,1.723c0.554,1.438,1.371,2.953,2.35,4.306    c0.646,0.894,1.45,2.243,2.778,2.751c1.145,0.468,2.494,0.933,3.678,0.851c1.129-0.08,2.268-0.083,3.188-0.542    c0.367-0.184,1.102-0.374,1.325-0.673c0.576-0.055-4.933-5.04-5.293-5.459c0.459-0.915,7.126,3.635,7.237,2.552    c-0.009-0.208-0.019-0.413-0.024-0.618c4.309,2.941,10.909,4.713,13.103,8.773c0.802,1.487,1.91,3.678,3.066,4.911    c4.618,4.92,4.773,12.72,4.706,20.202c-0.015,1.689-1.38,2.766-2.907,2.038c-2.647-1.264-4.569-3.008-8.097-3.639    c-1.665-0.3-2.644,1.2-1.27,2.182c1.34,0.955,3.112,1.429,4.578,2.372c1.42,0.915,3.204,3.011,4.223,4.36    c2.518,3.335,2.754,7.76,2.754,12.316c0,1.689-1.065,2.182-2.347,1.08c-6.931-5.961-12.69-11.698-19.56-18.17    c0.211,0.006,0.432,0.037,0.637,0.021c1.597-0.113,3.213-0.116,4.517-0.768c0.523-0.26,1.561-0.529,1.875-0.955    c0.814-0.077-6.983-7.136-7.497-7.729c0.649-1.294,10.089,5.147,10.242,3.611c-0.086-1.683,0.052-3.342-1.436-4.954    c-1.062-1.15-2.353-1.809-3.923-2.463c-3.24-1.346-6.677-2.589-10.083-3.449c-2.148-0.544-4.312-1.15-6.475-1.358    c-1.003-0.098-1.71-0.166-2.702-0.502c-0.56-0.19-1.668-0.835-2.212-0.814c0.863,0.401,1.591,0.823,2.053,1.563    c0.095,0.536,0.603,1.659,1.013,2.133c0.343,0.688,1.022,1.337,1.188,2.05c0.119,0.511,0.346,1.028,0.575,1.539    c-0.82,0.074-1.294,0.802-0.579,1.38c1.022,0.826-0.318,1.979-1.961,1.579c-3.21-0.783-6.163-2.111-9.373-2.692    c-1.662-0.3-2.151,0.792-0.634,1.533c2.136,1.043,5.11,1.891,7.161,2.733c1.563,0.643,3.708,2.059,5.193,2.864    c2.154,1.166,3.73,2.815,5.765,4.303c1.365,0.998,2.788,3.042,3.944,4.271c2.24,2.384,6.257,4.41,3.699,7.521    c-2.408,2.928-4.917,5.153-5.955,8.525c-0.496,1.616,0.869,2.552,1.98,1.276c1.353-1.551,2.436-3.696,3.84-4.92    c3.583-3.133,4.012-2.687,5.266-1.463c1.212,1.178,3.305,2.883,4.449,4.125c2.928,3.176,5.998,5.838,8.005,9.599    c0.795,1.49,2.237,3.709,2.497,5.376c0.664,4.272,0.11,12.567,0.11,14.673c0,8.259-7.929-1.258-10.511-4.272    c-2.273-2.656-8.424-5.912-10.881-9.443c-0.967-1.386-2.301-3.473-3.311-4.829c-0.331-0.447-0.612-0.949-0.903-1.441    c0.383-0.973,0.701-1.94,0.692-2.907c-0.006-0.584,0.208-1.634-0.034-2.102c0.116-0.306-1.393,0.141-3.28,0.795    c-0.499-0.808-1.013-1.68-1.497-2.472c1.594-1.233,2.794-2.283,2.283-2.601c-1.53-0.655-2.953-1.484-5.015-0.894    c-1.175-1.19-2.482-2.365-3.58-3.547c-1.151-1.239-3.223-2.573-4.642-3.491c-2.179-1.404-4.514-3.917-6.999-5.462    c-1.435-0.894-2.791-0.741-2.791-0.159c0,0.581-1.178,0.34-2.729-0.331c-0.184-0.08-0.37-0.153-0.566-0.22    c-1.595-0.557-2.081,0.499-0.793,1.591c1.527,1.292,3.479,2.923,4.645,4.205c1.135,1.251-0.058,3.118,0.456,4.113    c0.511,0.995,1.956,0.024,2.148-0.942c0.192-0.967,1.68-1.325,3.011-0.282c1.882,1.472,3.828,3.681,5.386,5.208    c0.618,0.605,1.322,1.398,1.971,2.228c-2.466,2.2-4.912,4.578-7.041,7.093c-1.432,1.692-2.929,3.369-4.064,5.221    c-0.526,0.856-0.899,1.466-1.637,2.206c-0.416,0.419-1.484,1.132-1.701,1.628c0.737-0.6,1.441-1.068,2.307-1.16    c0.523,0.15,1.753,0.187,2.362,0.024c0.768-0.006,1.652-0.331,2.362-0.168c0.814,0.187,1.753,0.129,2.617,0.205    c2.175,0.187,4.611,0.092,6.937-0.312c1.539-0.266,3.754-0.45,5.226-1.824c0.193-0.171,0.389-0.361,0.584-0.542    c0.747,1.57,1.059,2.537-1.72,3.599c-1.845,0.709-3.932,2.708-5.789,4.03c-1.377,0.979-3.391,2.524-4.789,3.476    c-1.906,1.297-4.419,1.9-6.169,3.599c-1.212,1.178-0.196,2.537,1.328,1.806c0.667-0.322,1.3-0.698,1.918-1.041    c1.478-0.82,2.769,0.119,2.203,1.429c-0.566,1.31,0.374,2.387,0.741,2.647c0.367,0.263,1.114-0.752,1.888-2.252    c2.956-5.713,8.397-11.956,15.374-9.26c3.323,1.282,5.896,5.891,8.378,8.281c3.485,3.375,7.041,6.71,10.009,10.572    c1.561,2.028,2.668,4.226,3.464,6.542c-3.754-1.551-7.717-2.98-11.652-3.978c-2.537-0.643-5.092-1.358-7.647-1.606    c-1.185-0.113-2.023-0.193-3.188-0.594c-0.658-0.226-1.968-0.988-2.61-0.96c1.019,0.471,1.882,0.973,2.427,1.845    c0.11,0.634,0.71,1.958,1.196,2.519c0.404,0.814,1.208,1.579,1.405,2.42c0.223,0.958,0.771,1.928,1.141,2.882    c0.927,2.405,2.295,4.939,3.929,7.197c1.08,1.493,2.423,3.749,4.645,4.599c1.913,0.784,4.171,1.564,6.15,1.42    c1.885-0.135,3.794-0.138,5.334-0.906c0.168-0.085,0.385-0.171,0.615-0.26c-0.135,5.272-0.728,10.707-0.921,15.976    c-0.062,1.689-1.169,2.243-2.412,1.099c-5.006-4.605-7.763-10.071-12.87-14.948c-1.221-1.169-3.057-3.164-4.079-4.51    c-1.49-1.962-2.598-2.613-6.196-2.574c-1.377,0.015-1.903-0.355-2.127-0.823c-0.575-1.199-1.086-3.191-0.86-4.865    c0.098-0.716,0.205-1.466,0.291-2.304c0.171-1.68-1.123-2.506-2.344-1.337c-1.493,1.432-3.081,3.488-4.106,5.254    c-0.848,1.462-0.202,2.843,0.759,2.411s1.845,0.003,2.341,1.129c0.496,1.126-0.67,1.953-2.273,1.423    c-2.359-0.78-4.452-1.812-7.344-1.035c-1.903,0.518-3.7,1.178-5.579,1.316c-1.686,0.125-3.519-1.349-4.78-0.998    c-1.264,0.352-2.561-0.71-3.54-0.532c-0.977,0.177-0.848,1.606,0.578,2.515c0.78,0.496,1.659,0.967,2.497,1.343    c1.542,0.695,3.708,2.277,2.91,3.767c-0.11,0.208-0.208,0.385-0.306,0.569c0.021-0.134,0-0.254-0.123-0.327    c-1.913-0.817-3.678-1.87-6.273-1.092c-1.851,0.557-3.28,1.628-4.856,3.017c-3.253,2.864-6.491,6.003-9.293,9.314    c-1.769,2.087-3.614,4.159-5.019,6.447c-0.652,1.059-1.111,1.809-2.02,2.724c-0.281,0.281-0.792,0.67-1.249,1.068    c-1.444-1.077-2.778-2.341-3.764-3.703c-0.991-1.368-2.601-3.394-3.326-4.92c-0.523-1.095-1.077-2.384-1.836-3.345    c-1.05-1.325-2.451-0.058-2.044,1.582c0.187,0.747,0.41,1.527,0.658,2.231c0.56,1.594,0.719,4.679,1.955,4.571    c1.24-0.107-0.254,2.014-0.771,2.417c-0.517,0.404-1.708,1.356-2.812,2.638c-0.661,0.765-1.2,1.702-1.451,2.543    c-0.486,1.619,2.185,1.273,3.452,0.153c3.929-3.464,3.966-2.433,9.648,1.355c3.268,2.191-2.812,7.8-5.321,12.549    c-0.79,1.494,0.456,2.711,1.781,1.659c1.913-1.518,3.109-4.055,5.08-5.741c1.285-1.099,3.893-2.23,5.579-2.096    c2.778,0.224,6.518,1.857,8.901,3.473c1.398,0.949,3.507,2.509,5.098,3.088c4.002,1.453,9.553,3.761,12.677,6.462    c1.279,1.105,3.29,2.721,4.56,3.837c1.817,1.604,3.941,4.189,5.254,6.249c0.909,1.426,2.366,3.583,3.498,4.835    c1.12,1.239,2.268,2.772,3.057,4.18c0.826,1.475,0.031,3.819-1.181,4.998c-2.666,2.592-5.633,5.303-8.831,6.432    c-1.594,0.562-3.837,1.436-5.028,2.377c-1.19,0.943-2.577,2.994-3.075,4.605c-0.333,1.084-0.67,2.166-1.004,3.25    c-0.499,1.615,0.417,2.51,1.698,1.408c2.231-1.912,5.021-5.074,6.812-6.084c1.472-0.828,3.329,1.295,4.611,0.193    c0.067-0.059,0.131-0.117,0.196-0.178c1.242-1.145,2.527-0.15,2.454,1.539c-0.077,1.787-0.086,3.887,0.315,5.4    c0.435,1.635,2.136,3.137,1.298,3.146s-1.741,0.955-2.298,2.549c-0.468,1.34-1.046,2.637-1.735,3.893    c-0.747,1.436-1.665,2.836-2.292,4.232c-0.695,1.539-2.041,3.123-1.634,4.084c0.407,0.961,1.931,1.396,2.675,0.352    c0.744-1.043,2.304-0.248,2.803,1.369c1.827,5.904-0.529,8.363-7.628,8.363c-1.38,0-7.466,1.902-10.83,3.678    c-1.493,0.789-3.611,1.773-5.3,1.689c-3.124-0.16-7.57-0.285-10.389-0.729c-1.671-0.264-4.042-1.348-5.637-1.904    c-1.254-0.438-2.665-1.016-3.822-1.598c-1.508-0.758-3.788-1.838-5.227-2.727c-2.781-1.713-4.942-5.473-7.58-7.254    c-1.401-0.945-3.718-2.033-4.834-3.303c-2.393-2.713-5.318-5.602-8.366-6.852c-1.564-0.643-2.72,0.176-1.956,0.814    c0.765,0.641,0.144,1.209-1.016,1.014c-1.16-0.193-2.203,1.291-0.851,2.303c1.566,1.176,4.302,1.322,6.358,2.316    c1.521,0.738,3.268,2.914,4.413,4.156c1.227,1.328,2.16,2.574,3.449,3.697c0.407,0.352,0.875,0.746,1.349,1.152    c-0.639-0.033-1.315,0.01-2.075,0.236c-1.851,0.557-3.28,1.627-4.856,3.018c-3.253,2.863-6.49,6.004-9.293,9.314    c-1.769,2.086-3.614,4.158-5.018,6.447c-0.652,1.059-1.111,1.809-2.02,2.723c-0.514,0.518-1.833,1.396-2.103,2.014    c0.912-0.74,1.778-1.318,2.849-1.432c0.646,0.186,2.167,0.232,2.916,0.031c0.949-0.008,2.041-0.41,2.919-0.209    c1.003,0.23,2.167,0.16,3.231,0.252c2.687,0.232,5.691,0.109,8.568-0.389c1.9-0.332,4.633-0.555,6.454-2.254    c1.616-1.438,3.381-3.199,4.158-5.125c0.741-1.832,1.613-3.625,1.598-5.426c-0.003-0.281,0.034-0.654,0.064-1.033    c0.625-0.334,1.289-0.465,1.913-0.221c1.38,0.541,2.766,1.564,4.165,2.494c1.408,0.936,2.485,2.883,1.873,4.459    c-2.142,5.494-7.372,9.209-8.712,15.74c-0.34,1.654,1.145,2.938,2.442,1.854c1.462-1.221,2.72-3.193,3.482-4.975    c0.664-1.555,1.827-3.816,3.066-4.963c1.616-1.498,3.718-3.504,5.288-5.008c1.221-1.166,3.565-2.523,5.251-2.43    c2.95,0.17,6.401,1.393,9.367,2.039c1.652,0.361,2.72,1.76,1.68,3.09c-0.869,1.111-2.041,2.289-3.17,3.25    c-1.285,1.096-2.76,3.111-3.32,4.707c-0.605,1.723-1.297,3.305-1.68,5.227c-0.328,1.658,1.242,2.885,2.194,1.49    c1.285-1.879,2.02-5.057,3.543-7.127c1.001-1.361,2.427-0.469,2.408,1.223c-0.009,0.959,0.028,1.85,0.303,2.541    c0.624,1.57,2.42,0.043,2.393-1.65c-0.046-2.67,0.089-5.449,1.236-7.783c0.349-0.713,1.056-1.283,1.698-1.85    c1.05-0.918,2.625-1.504,4.235-0.99c4.238,1.357,11.258,3.299,14.706,5.256c1.469,0.836,3.434,2.223,4.988,2.883    c2.347,0.994,4.985,2.816,5.9,4.588c0.462,0.887,1.634,3.949,2.953,6.01c0.912,1.422,2.693,3.246,3.369,4.797    c1.142,2.621,2.849,6.412,3.828,9c0.6,1.582,0.609,4.25,0.878,5.922c0.698,4.344,2.616,7.543,2.377,12.559    c-0.098,2.031-0.389,12.479,0.407,17.475c0.266,1.668,1.166,4.045,1.166,5.734c0,7.434,0,13.98,0,21.701    c0,14.9-3.687,29.891-4.152,45.074c-0.052,1.689,0.312,4.275-0.189,5.887c-0.811,2.6-2.476,6.439-3.611,9.07    c-0.67,1.551-2.139,3.764-2.681,5.365c-0.56,1.654-1.08,3.84-1.451,5.66c-0.336,1.656-1.12,4.227-2.059,5.633    c-0.447,0.672-0.942,1.387-1.423,2.049c-0.995,1.367-2.528,3.432-3.724,4.256c-1.196,0.822-3.198,2.053-4.483,3.148    c-2.852,2.43-7.09,4.059-10.572,4.406c-3.229,0.318-11.022,3.834-13.751,8.012c-0.924,1.414-1.977,3.785-3.244,4.904    c-5.098,4.52-11.723,10.307-13.427,16.646c-0.438,1.631,0.967,2.889,2.542,2.273c5.903-2.301,10.135-8.867,14.419-13.285    c1.175-1.215,2.292-3.588,3.479-4.793c1.637-1.658,4.572-2.705,6.705-3.516c1.579-0.6,3.963-1.469,5.6-1.896    c4.682-1.223,9.25-4.803,13.596-6.115c1.619-0.488,2.399,0.738,1.738,2.293c-1.98,4.656-5.3,13.246-7.179,17.625    c-0.667,1.555-1.469,4.113-1.123,5.766c1.38,6.619,8.384-8.699,11.576-15.113c0.753-1.512,1.992-3.967,3.287-5.053    c0.909-0.762,2.041-1.518,3.097-2.102c1.478-0.82,3.715-2.154,4.819-3.434c1.631-1.889,3.902-4.51,5.447-6.414    c1.065-1.312,1.674-1.096,1.735,0.594c0.208,5.795,0.912,11.551,1.107,17.965c0.144,4.822-0.125,9.789,0.376,14.578    c0.11,1.049,0.569,1.98,1.013,2.877c0.461,0.934,1.233,1.59,1.949,1.621c0.716-0.027,1.488-0.688,1.949-1.621    c0.447-0.896,0.904-1.828,1.014-2.877c0.502-4.789,0.232-9.756,0.377-14.578c0.195-6.416,0.902-12.17,1.107-17.965    c0.061-1.689,0.67-1.906,1.734-0.594c1.545,1.906,3.816,4.529,5.447,6.414c1.105,1.279,3.342,2.613,4.82,3.434    c1.055,0.584,2.188,1.34,3.096,2.102c1.295,1.086,2.533,3.537,3.287,5.053c3.191,6.414,10.195,21.729,11.576,15.113    c0.346-1.656-0.457-4.215-1.123-5.766c-1.879-4.379-5.199-12.969-7.18-17.625c-0.66-1.555,0.123-2.781,1.738-2.293    c4.348,1.312,8.914,4.893,13.596,6.115c1.635,0.424,4.021,1.293,5.6,1.896c2.133,0.811,5.066,1.857,6.705,3.516    c1.188,1.203,2.301,3.578,3.479,4.793c4.283,4.42,8.516,10.984,14.418,13.285c1.576,0.615,2.98-0.643,2.543-2.273    C355.251,555.338,348.624,549.549,343.524,545.029z M376.806,329.584c2.842,2.475,9.143,6.465,8.352,7.502    c-0.545-0.143-4.852-1.832-8.291-3.037c-0.164-0.359-0.33-0.717-0.486-1.084C375.888,331.789,376.163,330.652,376.806,329.584z     M322.267,153.729c0.699,0.646,1.1,1.166,0.895,1.435c-0.156-0.04-0.707-0.245-1.461-0.526    C321.903,154.328,322.075,154.041,322.267,153.729z M299.065,88c-0.057,0.22-0.551,1.497-1.08,2.922    c-0.051-0.009-0.113,0.006-0.162-0.009c-0.516-0.141-1.18,0.067-1.881,0.379C297.222,89.597,298.62,87.657,299.065,88z     M289.247,99.609c0.615-0.698,1.383-1.233,2.234-1.714c-0.279,0.478-0.861,1.46-1.5,2.356    C289.085,101.503,288.216,100.778,289.247,99.609z M267.71,90.913c-0.049,0.012-0.11-0.003-0.162,0.009    c-0.529-1.426-1.022-2.702-1.08-2.922c0.447-0.343,1.845,1.598,3.124,3.296C268.892,90.98,268.228,90.772,267.71,90.913z     M275.556,100.249c-0.639-0.896-1.221-1.878-1.499-2.356c0.851,0.48,1.619,1.016,2.234,1.713    C277.322,100.778,276.453,101.503,275.556,100.249z M242.377,155.164c-0.205-0.27,0.196-0.792,0.894-1.435    c0.193,0.312,0.364,0.6,0.566,0.909C243.083,154.919,242.533,155.124,242.377,155.164z M189.157,332.965    c-0.156,0.367-0.321,0.725-0.486,1.084c-3.439,1.205-7.745,2.895-8.29,3.037c-0.792-1.037,5.508-5.027,8.351-7.502    C189.375,330.652,189.65,331.789,189.157,332.965z M264.109,223.94c0.777,1.5,1.949,3.736,3.039,5.028    c2.39,2.827,5.12,7.472,6.304,11.016c0.536,1.603-0.584,2.289-1.876,1.202c-2.944-2.475-6.208-6.319-8.103-9.477    c-0.869-1.451-2.344-3.406-2.735-4.853c-0.392-1.448-1.426-3.516-2.111-5.062c-1.444-3.265-4.722-6.591-6.304-9.645    C255.443,214.57,261.826,219.543,264.109,223.94z M251.933,207.887c0.826,0.584,0.331,1.181-0.49,0.634    C250.626,207.976,251.107,207.303,251.933,207.887z M228.325,248.595c-3.161-0.961-7.739-2.721-10.575-4.042    c-1.53-0.716-3.908-1.894-5.521-2.399c-2.393-0.75-5.055-1.812-6.931-3.222c-1.35-1.016-3.375-2.595-4.872-3.378    c-0.765-0.401-1.515-0.894-2.249-1.426c0.551-0.34,1.12-0.591,1.769-0.658c0.646,0.187,2.167,0.233,2.916,0.031    c0.949-0.006,2.041-0.41,2.919-0.208c1.004,0.229,2.167,0.159,3.231,0.251c2.687,0.232,5.691,0.11,8.568-0.389    c1.9-0.331,4.633-0.554,6.454-2.252c0.101-0.089,0.202-0.19,0.303-0.282c0.934,1.891,1.509,3.739,0.496,5.224    c-1.163,1.701-3.161,3.577-4.397,5.685c-0.854,1.457,0.41,2.69,1.68,1.573c0.327-0.288,0.627-0.591,0.927-0.878    c1.221-1.169,2.347-0.753,2.157,0.027c-0.19,0.78,1.429,1.986,2.09,0.78c0.661-1.206,1.646-0.844,2.182,0.759    c0.291,0.866,0.579,1.735,0.869,2.601C230.868,247.992,229.941,249.087,228.325,248.595z M227.285,230.801    c-0.392-0.649-0.752-1.331-1.117-2.007c0.845-0.939,1.588-1.946,2.017-3.014c0.74-1.833,1.613-3.626,1.597-5.425    c-0.006-0.722,0.26-2.02-0.04-2.598c0.355-0.942-11.705,3.88-12.638,4.128c-0.939-1.233,8.136-6.637,9.52-8.709    c-0.45,1.347,2.124,0.376,2.393-1.236c0.123-0.722,0.282-1.31,0.634-1.729c1.089-1.292,3.687-0.508,4.718-0.554    s3.302-0.431,4.768,0.407c0.196,0.11,0.376,0.229,0.554,0.346c1.414,0.927,3.574,2.219,5.016,3.103    c0.655,0.404,1.312,0.795,1.817,1.395c1.089,1.292,2.185,3.455,2.904,4.985c0.716,1.524,1.3,3.608,1.689,5.364    c0.364,1.649-0.863,3.023-2.552,3.1c-4.93,0.227-12.757,0.979-16.958,2.996C230.085,232.077,228.154,232.248,227.285,230.801z     M239.714,336.561c0,0.582-1.126,0.832-2.441,0.299c-1.316-0.531-1.708-1.617-0.229-1.566c1.028,0.037,2.139,0.215,2.668,0.215    C239.714,335.863,239.714,336.211,239.714,336.561z M248.757,340.059c-1.288-0.486-2.772-1.051-4.036-1.512    c-1.588-0.582-2.855-1.439-2.527-1.295c0.159,0.07,0.303,0.166,0.318-0.357c1.398,0.254,4.804,1.049,7.032,2.16    C251.058,339.807,250.339,340.654,248.757,340.059z M272.004,333.014c-0.12-0.836-0.19-1.77-0.291-2.613    c-0.202-1.676-1.092-4.084-2.022-5.496c-0.799-1.209-2.01-1.936-3.011-1.967c-1.689-0.055-3.317,1.793-4.611,2.883    c-0.597,0.502-0.921,1.096-1.805,1.357c-1.619,0.486-3.886-1.15-4.942-2.473c-1.606-2.006-3.21-4.02-4.816-6.023    c-1.671-2.094-8.886-11.215-1.683-11.215c-0.062-3.955-1.135-8.584,0.382-12.396c0.199-0.502,2.562-4.004,4.241-5.113    c1.411-0.932,3.121,1.777,4.137,3.127c0.995,1.322,1.533,3.09,2.414,4.545c0.875,1.443,2.32,3.521,3.25,4.932    c0.321,0.49,0.682,0.982,1.025,1.484c0.952,1.395,2.552,3.51,3.354,4.996c1.383,2.564,2.273,6.434,2.573,8.234    c0.768,4.619,2.69,9.287,3.091,15.172C273.408,334.133,272.242,334.688,272.004,333.014z M266.346,284.332    c1.019,0.049,1.769,0.258,2.249,0.634c1.035,0.805-0.661,2.387-1.435,1.426C266.783,285.92,266.511,285.234,266.346,284.332z     M273.494,268.414c-2.105,6.258-9.508,8.908-14.731,5.379c-1.401-0.945-3.538-2.542-4.697-3.773    c-3.014-3.194-7.133-9.926-9.097-11.613c-1.781-1.53-4.936-7.935-7.292-11.276c-0.973-1.38-2.258-3.498-3.28-4.841    c-0.683-0.9-1.548-1.744-2.191-2.742c-0.915-1.42,0.446-3.091,2.099-3.458c3.751-0.832,9.608-2.261,9.608-2.218    c4.143,0.159,12.521,1.098,14.36,5.584c0.958,2.334,2.953,5.119,5.028,7.179c1.199,1.19,2.788,3.253,3.528,4.773    c1.536,3.158,4.208,8.186,5.838,11.279C273.457,264.185,274.036,266.811,273.494,268.414z M269.886,199.935    c0.416-0.833,3.901,1.037,7.029,2.625c0.144,1.447,0.223,2.919,0.245,4.409C274.697,204.426,270.299,200.412,269.886,199.935z     M288.622,202.56c3.125-1.588,6.613-3.458,7.029-2.625c-0.414,0.477-4.811,4.492-7.273,7.035    C288.399,205.479,288.479,204.007,288.622,202.56z M325.823,335.508c0.531,0,1.641-0.178,2.668-0.215    c1.48-0.051,1.086,1.035-0.229,1.566c-1.316,0.533-2.443,0.283-2.443-0.299C325.823,336.211,325.823,335.863,325.823,335.508z     M323.026,336.895c0.016,0.523,0.162,0.428,0.318,0.357c0.326-0.146-0.939,0.713-2.527,1.295    c-1.264,0.461-2.748,1.025-4.037,1.512c-1.582,0.596-2.301-0.252-0.789-1.004C318.222,337.947,321.624,337.15,323.026,336.895z     M315.03,318.682c-1.604,2.004-3.209,4.014-4.816,6.023c-1.055,1.32-3.322,2.957-4.941,2.473    c-0.881-0.266-1.209-0.855-1.807-1.357c-1.293-1.086-2.922-2.936-4.611-2.883c-1,0.031-2.211,0.758-3.01,1.967    c-0.932,1.412-1.824,3.82-2.023,5.496c-0.102,0.844-0.172,1.777-0.291,2.613c-0.238,1.674-1.4,1.119-1.285-0.566    c0.4-5.885,2.326-10.553,3.092-15.172c0.299-1.801,1.189-5.67,2.572-8.234c0.803-1.486,2.402-3.602,3.354-4.996    c0.344-0.506,0.701-0.998,1.025-1.484c0.932-1.41,2.375-3.488,3.25-4.934c0.885-1.455,1.424-3.221,2.414-4.543    c1.016-1.354,2.727-4.059,4.137-3.127c1.682,1.109,4.043,4.611,4.242,5.113c1.518,3.812,0.441,8.441,0.383,12.395    C323.917,307.467,316.704,316.59,315.03,318.682z M296.942,284.966c0.484-0.376,1.234-0.587,2.25-0.634    c-0.166,0.902-0.438,1.588-0.818,2.06C297.601,287.35,295.905,285.771,296.942,284.966z M356.53,233.542    c1.064-0.092,2.227-0.021,3.23-0.251c0.879-0.202,1.969,0.202,2.92,0.208c0.75,0.199,2.271,0.153,2.916-0.031    c0.646,0.067,1.215,0.318,1.77,0.658c-0.734,0.529-1.484,1.025-2.25,1.426c-1.496,0.783-3.521,2.362-4.871,3.378    c-1.875,1.411-4.539,2.476-6.932,3.222c-1.611,0.505-3.99,1.683-5.52,2.399c-2.836,1.325-7.412,3.082-10.576,4.042    c-1.615,0.493-2.543-0.603-2.006-2.207c0.289-0.866,0.578-1.735,0.869-2.601c0.535-1.604,1.518-1.964,2.182-0.759    c0.66,1.206,2.279,0,2.09-0.78s0.936-1.196,2.156-0.027c0.301,0.288,0.6,0.593,0.928,0.878c1.27,1.114,2.537-0.116,1.68-1.573    c-1.236-2.108-3.234-3.984-4.396-5.686c-1.014-1.484-0.438-3.332,0.494-5.223c0.102,0.092,0.203,0.193,0.305,0.281    c1.816,1.698,4.553,1.922,6.453,2.252C350.839,233.656,353.843,233.775,356.53,233.542z M316.108,219.886    c0.719-1.53,1.814-3.69,2.902-4.985c0.506-0.6,1.164-0.991,1.818-1.396c1.441-0.884,3.602-2.176,5.016-3.103    c0.178-0.116,0.357-0.233,0.553-0.346c1.467-0.839,3.736-0.456,4.768-0.407c1.031,0.046,3.633-0.737,4.719,0.554    c0.355,0.419,0.512,1.007,0.635,1.729c0.271,1.613,2.842,2.586,2.393,1.236c1.383,2.072,10.459,7.479,9.52,8.708    c-0.938-0.248-12.994-5.07-12.639-4.128c-0.299,0.579-0.033,1.876-0.043,2.598c-0.016,1.799,0.857,3.592,1.598,5.425    c0.428,1.068,1.172,2.075,2.018,3.014c-0.365,0.676-0.727,1.359-1.117,2.007c-0.873,1.447-2.801,1.276-4.324,0.545    c-4.201-2.02-12.029-2.77-16.959-2.996c-1.689-0.076-2.916-1.45-2.551-3.1C314.808,223.493,315.392,221.41,316.108,219.886z     M313.604,207.887c0.826-0.584,1.307,0.089,0.49,0.634C313.274,209.065,312.778,208.469,313.604,207.887z M292.083,239.987    c1.188-3.547,3.914-8.188,6.305-11.016c1.088-1.292,2.26-3.528,3.037-5.027c2.283-4.4,8.666-9.37,11.781-11.793    c-1.578,3.054-4.859,6.38-6.303,9.645c-0.684,1.545-1.721,3.614-2.111,5.062c-0.393,1.447-1.867,3.406-2.736,4.853    c-1.891,3.158-5.158,7.001-8.104,9.477C292.667,242.275,291.548,241.59,292.083,239.987z M292.87,262.689    c1.631-3.094,4.303-8.121,5.838-11.279c0.738-1.521,2.326-3.583,3.529-4.773c2.074-2.057,4.068-4.844,5.027-7.179    c1.838-4.489,10.217-5.426,14.359-5.584c0-0.04,5.857,1.386,9.609,2.218c1.648,0.367,3.014,2.038,2.1,3.458    c-0.643,0.998-1.51,1.842-2.191,2.742c-1.021,1.346-2.307,3.461-3.281,4.841c-2.355,3.342-5.51,9.746-7.291,11.276    c-1.965,1.687-6.084,8.418-9.098,11.613c-1.16,1.23-3.295,2.828-4.697,3.773c-5.223,3.528-12.625,0.878-14.73-5.379    C291.503,266.811,292.081,264.185,292.87,262.689z" fill="#FFFFFF"/>
	</g>
</g>
<g>
</g>
<g>
</g>
<g>
</g>
<g>
</g>
<g>
</g>
<g>
</g>
<g>
</g>
<g>
</g>
<g>
</g>
<g>
</g>
<g>
</g>
<g>
</g>
<g>
</g>
<g>
</g>
<g>
</g>
</svg>
