<?xml version="1.0" encoding="iso-8859-1"?>
<!-- Generator: Adobe Illustrator 16.0.0, SVG Export Plug-In . SVG Version: 6.00 Build 0)  -->
<!DOCTYPE svg PUBLIC "-//W3C//DTD SVG 1.1//EN" "http://www.w3.org/Graphics/SVG/1.1/DTD/svg11.dtd">
<svg xmlns="http://www.w3.org/2000/svg" xmlns:xlink="http://www.w3.org/1999/xlink" version="1.1" id="Capa_1" x="0px" y="0px" width="512px" height="512px" viewBox="0 0 31.984 31.984" style="enable-background:new 0 0 31.984 31.984;" xml:space="preserve">
<g>
	<path d="M19.392,18.85c0.283-0.321,0.555-1.109,0.789-1.991c0.59,0.688,1.453,1.132,2.43,1.132c1.127,0,2.115-0.583,2.689-1.461   c0.172,0.027,0.346,0.053,0.525,0.053c1.775,0,3.215-1.439,3.215-3.214c0-1.31-0.785-2.433-1.91-2.934   c0.084-0.395,0.135-0.801,0.135-1.22c0-3.072-2.403-5.56-5.428-5.745C20.943,1.428,18.912,0,16.544,0   c-2.785,0-5.108,1.971-5.656,4.593c-0.246-0.04-0.494-0.076-0.751-0.076c-2.233,0-4.094,1.563-4.57,3.651   c-1.548,0.768-2.623,2.349-2.623,4.194c0,2.593,2.103,4.696,4.696,4.696c1.509,0,2.837-0.726,3.697-1.832   c0.363,1.09,0.85,2.283,1.324,2.591c0.922,0.597,1.249,0.597,1.466,1.194c0.217,0.598-0.783,6.371-1.272,7.021   c-0.489,0.65-1.89,1.236-2.691,1.555c-0.802,0.319-3.919,1.787-4.234,2.389c1.073-0.461,3.174-0.857,4.853-1.121   c0.516-0.082-1.879,1.555-1.487,1.5c0.662-0.09,3.962-1.846,3.963-1.846c0,0-0.026,0.875-0.651,1.467   c-1.031,0.977-2.552,2.008-2.552,2.008s5.348-1.684,6.162-3.42c2.037,2.66,5.564,3.148,5.564,3.148s-2.111-1.326-2.495-2.023   s0.021-1.073,0.021-1.073s3.887,1.469,7.252,1.306c-1.356-0.597-2.932-1.086-4.342-2.009c-1.412-0.923-2.158-1.135-3.148-1.532   c-0.99-0.396-0.949-3.936-1.076-4.699C17.709,19.991,18.595,19.762,19.392,18.85z M12.955,16.463   c-0.226-0.17-0.613-0.701-0.999-1.283c0.696,0.407,1.496,0.657,2.361,0.657c0.113,0,0.218-0.024,0.329-0.032   c0.023,0.547,0.024,0.982,0.024,0.982S13.529,16.896,12.955,16.463z M17.329,17.71c0,0,0.488-1.466,0.271-2.226   c-0.053-0.186-0.104-0.502-0.148-0.87c0.243-0.22,0.465-0.459,0.657-0.725c0.399,0.29,0.836,0.526,1.305,0.707   c-0.004,0.061-0.019,0.119-0.019,0.18c0,0.333,0.064,0.647,0.158,0.948c-0.482,0.859-0.943,1.678-1.086,1.931   C18.134,18.254,17.329,17.71,17.329,17.71z" fill="#FFFFFF"/>
</g>
<g>
</g>
<g>
</g>
<g>
</g>
<g>
</g>
<g>
</g>
<g>
</g>
<g>
</g>
<g>
</g>
<g>
</g>
<g>
</g>
<g>
</g>
<g>
</g>
<g>
</g>
<g>
</g>
<g>
</g>
</svg>
