<?xml version="1.0" encoding="iso-8859-1"?>
<!-- Generator: Adobe Illustrator 16.0.0, SVG Export Plug-In . SVG Version: 6.00 Build 0)  -->
<!DOCTYPE svg PUBLIC "-//W3C//DTD SVG 1.1//EN" "http://www.w3.org/Graphics/SVG/1.1/DTD/svg11.dtd">
<svg xmlns="http://www.w3.org/2000/svg" xmlns:xlink="http://www.w3.org/1999/xlink" version="1.1" id="Capa_1" x="0px" y="0px" width="512px" height="512px" viewBox="0 0 97.222 97.223" style="enable-background:new 0 0 97.222 97.223;" xml:space="preserve">
<g>
	<path d="M78.337,58.996L60.355,41.014h11.99c0.81,0,1.538-0.487,1.849-1.234c0.31-0.748,0.139-1.607-0.435-2.18L55.909,19.749   h8.442c0.008,0.001,0.016,0.001,0.02,0c1.105,0,2-0.896,2-2c0-0.638-0.299-1.206-0.764-1.572L50.014,0.586   c-0.781-0.781-2.047-0.781-2.828,0l-15.75,15.749c-0.572,0.572-0.743,1.432-0.434,2.18c0.31,0.747,1.039,1.234,1.848,1.234h8.442   L23.441,37.6c-0.572,0.572-0.743,1.432-0.434,2.18c0.31,0.747,1.039,1.234,1.848,1.234h11.991l-18.14,18.141   c-0.572,0.572-0.743,1.433-0.434,2.181c0.31,0.747,1.039,1.233,1.848,1.233h23.528L41.491,95.09   c-0.036,0.553,0.157,1.096,0.536,1.499c0.378,0.403,0.906,0.634,1.46,0.634h10.228c0.008,0,0.016,0,0.021,0c1.104,0,2-0.896,2-2   c0-0.144-0.016-0.281-0.043-0.415l-2.14-32.238h23.528c0.007,0.001,0.015,0.001,0.021,0c1.104,0,2-0.896,2-2   C79.101,59.931,78.802,59.362,78.337,58.996z" fill="#00796B"/>
</g>
<g>
</g>
<g>
</g>
<g>
</g>
<g>
</g>
<g>
</g>
<g>
</g>
<g>
</g>
<g>
</g>
<g>
</g>
<g>
</g>
<g>
</g>
<g>
</g>
<g>
</g>
<g>
</g>
<g>
</g>
</svg>
