<?xml version="1.0" encoding="iso-8859-1"?>
<!-- Generator: Adobe Illustrator 19.1.0, SVG Export Plug-In . SVG Version: 6.00 Build 0)  -->
<svg xmlns="http://www.w3.org/2000/svg" xmlns:xlink="http://www.w3.org/1999/xlink" version="1.1" id="Capa_1" x="0px" y="0px" viewBox="0 0 159.362 159.362" style="enable-background:new 0 0 159.362 159.362;" xml:space="preserve" width="512px" height="512px">
<g id="XMLID_49_">
	<path id="XMLID_1496_" d="M30.147,45.166c0.437-1.046-0.157-1.845,0.468-2.633   c1.157-0.086,1.494,0.937,1.996,1.671c0.486,0.71,0.485,1.892,1.979,0.987c0.748-0.453,1.753,1.542,1.941,1.228   c1.482-2.466,2.426,0.047,3.681,0.408c2.022-2.981,4.064-5.865,6.656-8.311c2.363-2.231,5.09-3.578,8.327-3.865   c1.659-0.147,2.337,0.057,4.295,1.28c-2.592,1.604-5.122,3.202-6.103,6.077c0.235,0.673,0.673,0.719,1.081,0.841   c0.791,0.238,1.944,0.097,2.144,1.099c0.211,1.057-0.976,1.271-1.63,1.756c-1.198,0.889-1.804,2.093-2.076,3.497   c0.14,0.17,0.26,0.317,0.38,0.463c1.126-0.946,1.935,1.02,2.717,0.442c0.811-0.599,1.206-1.741,1.846-2.598   c0.314-0.421,1.033-1.058,1.289-0.76c1.961,2.288,2.448-0.495,3.569-0.98c0.481-0.208,1.154-0.788,1.391-0.223   c0.959,2.292,1.873,0.779,2.803,0.07c0.913-0.696,1.868-1.124,2.972-0.484c3.455,2.003,6.879,4.055,9.305,7.354   c0.433,0.589,1.032,1.215,0.626,2.036c-0.416,0.841-1.286,0.622-2.009,0.676c-1.984,0.15-3.816-0.493-5.677-1.056   c-4.131-1.25-8.279-1.247-12.384,0.125c-0.552,0.184-1.315,0.271-1.504,1.283c2.066-0.308,4.056-0.648,6.058-0.895   c7.607-0.937,14.256,5.581,13.666,13.578c-2.398-0.716-2.767-4.105-6.036-3.955c-2.335,0.108-4.566-2.224-7.384-1.684   c0.138,1.157,1.134,1.318,1.774,1.765c1.778,1.24,3.495,2.564,4.802,4.288c1.15,1.517,2.471,3.076,0.785,5.173   c-0.774,0.963,0.044,2.068,0.382,3.061c0.544,1.597,0.611,3.082-0.775,4.635c-1.691-2.014-3.493-3.738-4.742-5.797   c-0.825-1.36-2.407-1.584-3.152-2.925c-0.471-0.847-0.497,0.172-0.604,0.369c-0.441,0.818-1.039,1.32-1.676,0.352   c-0.861-1.309-1.806-0.644-2.956-0.38c0.429,1.694,1.09,3.305,0.915,5.054c-0.118,1.183,0.711,1.98,1.329,2.855   c1.169,1.653,1.646,3.421,1.278,5.486c-0.46,2.58-0.57,5.107,1.558,7.243c0.86,0.863,0,1.323-0.892,1.32   c-3.469-0.013-6.232-3.404-5.911-7.384c-1.152,0.439-2.402,0.942-2.336-1.072c0.007-0.207-0.055-0.589-0.128-0.599   c-2.75-0.401-2.027-2.739-2.512-4.418c-0.462-1.598-1.443-2.812-2.877-3.716c-0.947,0.852-0.548,1.919-0.824,2.794   c-0.254,0.808-0.232,1.886-1.179,2.162c-2.302,0.669-1.901,2.289-1.469,3.878c0.847,3.116,1.631,6.262,2.702,9.304   c4.002,11.371,7.488,22.94,12.548,33.912c2.512,5.447,5.301,10.765,8.092,16.398c1.019-1.042,1.062-2.012,1.149-2.926   c0.921-9.639,1.715-19.291,2.757-28.916c0.986-9.103,2.987-18.044,4.698-27.031c1.862-9.783,4.74-19.222,9.081-28.2   c0.418-0.865,0.793-1.784,0.983-2.72c0.246-1.211,0.109-2.477-1.172-3.069c-1.804-0.834-1.472-2.167-0.967-3.527   c0.297-0.798,0.79-1.526,1.213-2.275c0.705-1.25,1.836-2.229,0.695-4.028c-0.776-1.223,1.122-2.122,1.591-3.651   c-1.694,0.016-2.73,1.102-3.926,1.791c-1.153,0.665-2.158,1.829-3.686,0.39c-0.721-0.68-1.645,0.237-2.227,0.787   c-1.21,1.144-2.464,1.33-4.084,1.01c-2.112-0.417-3.202-1.637-2.622-3.676c0.51-1.793,1.514-3.321,2.975-4.522   c1.995-1.64,4.078-3.149,6.951-4.379c-2.128-1.065-3.655-0.412-5.165,0.158c-1.592,0.601-2.85,1.947-4.705,2.006   c-0.699,0.022-0.995,0.738-1.295,1.318c-0.445,0.861-0.878,1.73-1.372,2.563c-0.309,0.522-0.571,1.309-1.37,1.07   c-0.713-0.213-0.195-1.115-0.497-1.756c-1.191,1.471-0.189,3.366-1.366,4.687c-2.015-3.129-1.437-6.738,1.505-11.955   c4.085-7.244,10.855-7.579,17.897-7.305c-1.226-1.386-2.259-1.736-4.798-1.503c-0.933,0.085-1.974,0.626-2.098-1.027   c-0.071-0.947-0.848-0.762-1.485-0.638c-1.765,0.346-3.257,1.097-4.122,2.786c-0.389,0.76-0.702,1.594-1.712,1.776   c-2.582,0.464-4.425,2.085-6.139,3.921c-0.185,0.198-0.543,0.234-0.779,0.329c-0.457-0.382-0.514-0.859-0.359-1.239   c1.97-4.828,4.039-9.67,9.461-11.574c1.682-0.591,2.172-2.274,3.708-2.951c0.896-0.395,0.251-1.658-1.322-2.016   c-3.192-0.726-4.616-2.907-5.138-5.903c-0.148-0.848-0.356-1.798,0.537-2.341c0.78-0.474,1.413,0.23,2.049,0.568   c2.503,1.331,5.264,1.904,7.955,2.634c2.917,0.791,5.84,1.502,8.484,3.033c0.464,0.269,1.177,0.754,1.468,0.404   c1.319-1.591,3.347-1.045,5.077-1.639c-0.633-1.076-1.456-1.135-2.321-1.071c-4.665,0.345-4.665,0.347-8.476-2.359   c2.676-2.711,9.56-4.205,13.436-2.916c3.873,1.288,6.77,4.688,8.847,10.391c0.843,0.208,1.042-0.563,1.454-0.986   c2.86-2.935,6.985-3.691,10.82-2.062c1.67,0.709,3.583,0.861,4.977,2.191c0.459,0.438,1.084,0.887,0.819,1.605   c-0.301,0.816-1.087,0.544-1.677,0.426c-3.377-0.676-6.118,0.646-8.628,2.694c-0.632,0.515-1.362,1.033-1.153,2.087   c1.03-0.089,1.484-0.92,2.092-1.457c1.597-1.411,3.664-0.105,5.315-1.034c0.202,1.671,1.008,0.945,1.808,0.486   c0.716-0.41,1.515-0.31,2.171,0.086c2.175,1.311,4.515,2.446,5.81,4.818c0.489,0.895,1.416,1.301,2.105,1.971   c2.624,2.552,4.486,5.431,4.072,9.662c-2.451-1.018-3.452-3.407-5.547-4.411c-2.158-1.034-4.428-1.663-6.715-2.272   c-2.334-0.621-4.707-0.628-7.043-0.119c-2.298,0.501-4.588,1.1-6.674,2.459c1.734-0.318,3.318-0.004,4.929,0.594   c1.43,0.531,2.983,0.277,4.469-0.063c9.66-2.215,19.699,5.723,17.82,18.789c-0.03,0.212-0.092,0.422-0.165,0.624   c-0.438,1.204-0.694,2.916-2.016,3.075c-1.609,0.193-1.046-1.775-1.648-2.677c-1.651-2.475-2.199-5.316-2.655-8.189   c-0.145-0.914-0.32-1.857-1.253-2.556c-0.055,1.94,1.253,3.738,0.248,5.75c-1.687-0.932-1.514-2.84-2.953-3.819   c-0.039,1.657,1.075,3.06,0.422,4.708c-0.312,0.786,0.868,1.373,1.396,2.03c3.256,4.052,4.355,8.561,2.947,13.62   c-0.415,1.49-1.133,2.809-2.333,3.791c-0.772,0.632-1.413,0.422-1.638-0.595c-0.092-0.414-0.15-0.873-0.071-1.282   c0.846-4.35-1.553-7.661-3.553-11.083c-0.843-1.443-2.649-1.788-3.766-3.594c-0.421,1.333,0.198,1.822,0.466,2.403   c0.314,0.679,0.957,1.472,0.81,2.05c-0.494,1.94,0.52,3.531,0.861,5.273c0.285,1.457,0.498,2.844-1.729,2.926   c-1.157,0.043-1.889,0.939-2.46,1.896c-0.554,0.929-0.736,1.826,0.35,2.512c3.936,2.486,5.459,6.528,6.783,10.655   c0.477,1.486,0.646,2.793,2.838,2.09c0.62-0.199,1.676,0.449,2.676,0.453c1.052,0.004,1.83-0.183,2.634-0.798   c0.732-0.56,1.447-1.038,1.765,0.527c0.146,0.719,0.874,0.083,1.293-0.136c3.114-1.631,4.722-1.443,7.091,1.044   c1.495,1.57,2.807,3.304,2.9,5.611c0.03,0.729,0.119,1.604-0.777,1.938c-0.745,0.278-1.133-0.406-1.615-0.802   c-3.018-2.482-5.275-2.717-8.159-0.831c-0.146,0.096-0.189,0.351-0.418,0.806c3.434-0.613,6.447,0.237,9.26,1.905   c1.209,0.717,2.384,1.497,3.249,2.626c1.093,1.426,2.3,2.593,4.775,1.921c-1.04,2.219-2.195,2.652-3.85,2.112   c-1.39-0.454-2.731-1.375-4.266-0.598c-0.396,0.773,0.206,1.261,0.403,1.846c0.192,0.571,0.173,1.233-0.534,1.211   c-1.612-0.05-1.508,0.664-1.046,1.792c0.832,2.031,0.545,4.045-0.44,5.927c-0.821,1.567-1.304,3.157-1.236,4.94   c0.045,1.197-0.307,2.345-0.847,3.416c-0.187,0.371-0.465,0.858-0.932,0.689c-0.653-0.235-0.258-0.951-0.585-1.663   c-1.08,1.947-1.758,4.149-4.115,5.133c-0.589-1.596,0.173-2.745,0.506-3.931c0.327-1.163,0.743-2.169-0.667-3.066   c-1.289-0.82-1.044-2.497-1.567-4.086c-0.945,1.18-0.943,2.496-1.358,3.622c-1.755,4.77-5.224,7.032-10.221,6.581   c-0.611-0.055-1.406,0.095-1.588-0.736c-0.134-0.616,0.453-0.897,0.895-1.192c0.089-0.06,0.184-0.112,0.271-0.177   c3.94-2.934,4.172-3.745,2.389-8.283c-0.193-0.491-0.348-0.997-0.531-1.528c-1.936,2.774-4.102,5.239-7.292,6.473   c-1.058,0.41-1.438,1.26-1.9,2.07c-6.003,10.525-13.499,19.988-21.127,29.326c-4.969,6.083-10.38,11.805-15.598,17.684   c-0.429,0.483-0.89,1.04-1.557,1.087c-3.195,0.227-6.366,0.844-9.607,0.301c-1.87-0.313-2.753-1.447-3.435-3.009   c-5.302-12.133-10.833-24.158-15.245-36.677c-3.514-9.97-6.735-19.991-8.912-30.337c-0.223-1.06-0.391-2.109-1.756-2.402   c-0.769-0.165-1.207-0.871-1.562-1.55c-0.866-1.657-1.095-3.564-2.94-4.803c-1.254-0.842-0.084-2.835-0.602-4.442   c-1.283,0.834-0.975,2.646-2.727,3.098c-0.759,0.196-0.633,2.354-1.379,3.625c-1.053,1.79,0.3,3.674,1.37,5.329   c0.661,1.022,2.015,1.624,2.046,3.485c-4.089-0.687-7.626-1.766-9.836-5.463c-2.068-3.458-1.65-7.232-1.222-11.318   c-1.281,0.539-1.431,1.412-1.775,2.122c-0.474,0.976-0.922,2.239-1.973,2.435c-2.178,0.407-1.916,1.916-2.003,3.414   c-0.084,1.431,0.41,3.013-0.978,4.375c-2.353-2.196-2.379-4.991-2.505-7.933c-0.755,0.323-0.681,0.96-0.794,1.482   c-0.109,0.502,0.014,1.107-0.788,1.458c-1.21-1.636-1.014-3.435-0.402-5.157c0.783-2.204,0.889-4.334,0.426-6.643   c-0.708-3.531,0.175-5.505,3.36-8.643c-0.693-0.959-2.145-0.021-2.752-1.045c-0.177-0.482,0.104-0.813,0.361-1.164   c0.488-0.667,1.708-1.071,1.363-2.013c-0.457-1.246-1.806-0.867-2.833-0.944c-0.641-0.048-1.291,0.03-1.937,0.055   c-2.222,0.087-3.666-0.869-4.326-3.27c1.492-0.345,2.738,1.037,4.063,0.358c1.242-0.636,2.417-1.427,3.702-1.952   c4.218-1.722,8.494-2.348,12.829-0.332c0.551,0.256,1.103,0.756,1.783,0.267c-1.965-3.787-5.571-5.047-9.371-3.334   c-0.901,0.406-1.865,1.715-2.825,0.66c-1.022-1.123-0.244-2.529,0.493-3.557c1.951-2.723,4.582-4.524,7.918-5.157   c2.114-0.401,3.814,0.256,5.003,2.112C28.774,43.174,29.391,44.048,30.147,45.166z M93.835,96.066   c-0.188-0.544-0.393-0.843-0.373-1.126c0.194-2.648,2.634-4.592,2.322-7.467c-0.051-0.473,0.908-1.133,1.495-1.583   c1.296-0.993,2.836-1.505,4.342-2.096c0.791-0.31,1.894-0.089,2.52-1.121c-2.092-1.298-4.242-0.031-6.084-0.547   c-2.298-0.645-3.697,1.352-5.731,1.484c0-0.514-0.083-0.847,0.012-1.116c1.577-4.441,7.579-9.108,13.957-6.36   c1.395,0.601,2.789,1.202,4.184,1.803c-2.624-2.658-5.58-3.856-9.236-3.911c-1.954-0.03-3.88-0.11-5.691-0.915   c-1.457-0.649-1.555-1.302-0.277-2.31c0.753-0.594,1.631-1.038,2.481-1.496c0.759-0.409,1.725-0.685,2.01-1.527   c0.735-2.176,2.239-3.878,3.482-5.762c-0.778-0.471-1.033,0.244-1.472,0.416c-0.5,0.197-1.009,0.538-1.442-0.029   c-0.379-0.497-0.114-1.013,0.116-1.506c0.356-0.761,1.192-1.229,1.356-2.408c-0.879,0.69-1.576,1.289-2.333,1.798   c-0.198,0.133-0.686,0.101-0.85-0.055c-0.172-0.164-0.253-0.642-0.138-0.856c0.764-1.418,1.699-2.753,2.075-4.353   c0.379-1.611,0.89-3.245-0.528-5.081c-0.542,1.176-0.9,2.05-1.338,2.881c-0.772,1.466-1.141,3.39-3.568,2.969   c-0.707-0.122-1.051,0.659-1.33,1.236c-0.56,1.163-1.089,2.342-1.612,3.522c-7.536,17.018-11.506,34.912-12.779,53.408   c-0.68,9.87-1.394,19.747-1.528,29.65c-0.025,1.877-0.214,3.751-0.325,5.576c0.786,0.134,1.075-0.208,1.381-0.492   c13.351-12.375,24.255-26.774,34.471-41.738c0.8-1.172,1.665-2.374-0.125-3.538c-0.581-0.378-0.506-1.126-0.387-1.789   c0.148-0.822,0.634-1.613,0.217-2.657c-1.805,0.443-3.072,1.571-3.755,3.185c-0.606,1.431-1.718,2.198-2.972,2.744   c-1.346,0.586-2.403,1.174-3.294,2.543c-1.388,2.133-3.933,2.278-6.399,0.614c2.859-1.244,3.557-3.627,3.726-6.323   c0.071-1.124,0.709-2.13,1.618-2.696c2.52-1.571,3.009-4.386,4.572-6.509c-1.243-0.806-2.512,0.301-3.324-0.384   c-1.497-1.262-2.539-0.284-3.686,0.4C97.697,93.678,95.82,94.849,93.835,96.066z M111.398,53.167   c-0.752,4.549-0.752,4.549-2.456,3.947c0.109,1.553-0.336,2.996-0.525,4.476c-0.207,1.616-0.864,3.082-1.414,4.592   c-0.574,1.574,0.627,3.97,1.448,3.421c1.815-1.213,1.942,0.288,2.527,1.143c0.368,0.538,0.584,1.093,1.473,0.825   c0.974-0.294,1.435,0.56,1.528,1.25c0.261,1.946,1.571,1.923,3.013,1.843c0.221-0.873,0.296-2.283-0.345-2.343   c-2.865-0.265-1.593-2.117-1.565-3.495c0.03-1.5,0.121-2.998,0.14-4.497c0.008-0.664-0.151-1.401-0.996-1.347   c-1.472,0.095-1.548-0.787-1.477-1.849c0.034-0.507,0.334-1.1-0.286-1.433c-1.682-0.903-1.156-2.311-0.888-3.669   C111.735,55.224,112.189,54.422,111.398,53.167z" fill="#00796B"/>
</g>
<g>
</g>
<g>
</g>
<g>
</g>
<g>
</g>
<g>
</g>
<g>
</g>
<g>
</g>
<g>
</g>
<g>
</g>
<g>
</g>
<g>
</g>
<g>
</g>
<g>
</g>
<g>
</g>
<g>
</g>
</svg>
